<svg xmlns="http://www.w3.org/2000/svg" xmlns:xlink="http://www.w3.org/1999/xlink" width="75" zoomAndPan="magnify" viewBox="0 0 56.25 30.000001" height="40" preserveAspectRatio="xMidYMid meet" version="1.0"><defs><clipPath id="id1"><path d="M 1.269531 2.902344 L 7.800781 2.902344 L 7.800781 9.433594 L 1.269531 9.433594 Z M 1.269531 2.902344 " clip-rule="nonzero"/></clipPath><clipPath id="id2"><path d="M 5 5 L 7.800781 5 L 7.800781 9 L 5 9 Z M 5 5 " clip-rule="nonzero"/></clipPath><clipPath id="id3"><path d="M 20 5 L 22.511719 5 L 22.511719 8.242188 L 20 8.242188 Z M 20 5 " clip-rule="nonzero"/></clipPath><clipPath id="id4"><path d="M 10.171875 4.613281 L 20 4.613281 L 20 8.242188 L 10.171875 8.242188 Z M 10.171875 4.613281 " clip-rule="nonzero"/></clipPath><clipPath id="id5"><path d="M 12 5 L 20 5 L 20 8.242188 L 12 8.242188 Z M 12 5 " clip-rule="nonzero"/></clipPath><clipPath id="id6"><path d="M 29 5 L 37.234375 5 L 37.234375 7 L 29 7 Z M 29 5 " clip-rule="nonzero"/></clipPath><clipPath id="id7"><path d="M 25 5 L 28 5 L 28 7.859375 L 25 7.859375 Z M 25 5 " clip-rule="nonzero"/></clipPath><clipPath id="id8"><path d="M 25 4.230469 L 30 4.230469 L 30 7.859375 L 25 7.859375 Z M 25 4.230469 " clip-rule="nonzero"/></clipPath><clipPath id="id9"><path d="M 39.28125 2.980469 L 45.816406 2.980469 L 45.816406 9.515625 L 39.28125 9.515625 Z M 39.28125 2.980469 " clip-rule="nonzero"/></clipPath><clipPath id="id10"><path d="M 48.007812 3.300781 L 54.539062 3.300781 L 54.539062 9.832031 L 48.007812 9.832031 Z M 48.007812 3.300781 " clip-rule="nonzero"/></clipPath><clipPath id="id11"><path d="M 17 14 L 22 14 L 22 16.183594 L 17 16.183594 Z M 17 14 " clip-rule="nonzero"/></clipPath><clipPath id="id12"><path d="M 18.445312 15.21875 L 21 15.21875 L 21 16.183594 L 18.445312 16.183594 Z M 18.445312 15.21875 " clip-rule="nonzero"/></clipPath><clipPath id="id13"><path d="M 20.316406 15.4375 C 20.332031 15.390625 20.332031 15.320312 20.183594 15.351562 C 20.183594 15.351562 19.769531 15.40625 19.75 15.855469 L 19.742188 16.714844 L 19.644531 16.714844 L 19.632812 15.855469 C 19.613281 15.40625 19.203125 15.351562 19.203125 15.351562 C 19.050781 15.320312 19.054688 15.390625 19.070312 15.4375 C 18.921875 15.203125 18.527344 15.234375 18.527344 15.234375 C 18.390625 15.277344 18.515625 15.359375 18.515625 15.359375 C 18.730469 15.433594 18.75 15.652344 18.75 15.652344 L 18.75 16.273438 L 18.773438 16.753906 C 18.824219 16.96875 18.945312 17.09375 19.0625 17.167969 L 20.324219 17.167969 C 20.476562 17.070312 20.632812 16.886719 20.632812 16.542969 L 20.632812 15.652344 C 20.632812 15.652344 20.652344 15.433594 20.871094 15.359375 C 21.085938 15.289062 20.996094 15.277344 20.859375 15.234375 C 20.859375 15.234375 20.84375 15.230469 20.816406 15.230469 C 20.707031 15.230469 20.433594 15.25 20.316406 15.4375 M 19.125 16.320312 L 19.125 15.644531 C 19.125 15.578125 19.113281 15.523438 19.089844 15.476562 C 19.230469 15.578125 19.242188 15.839844 19.242188 15.839844 L 19.242188 16.683594 C 19.101562 16.589844 19.125 16.320312 19.125 16.320312 M 20.144531 15.839844 C 20.144531 15.839844 20.152344 15.578125 20.296875 15.476562 C 20.273438 15.523438 20.261719 15.578125 20.261719 15.644531 L 20.261719 16.320312 C 20.261719 16.320312 20.285156 16.570312 20.144531 16.675781 Z M 20.144531 15.839844 " clip-rule="nonzero"/></clipPath><clipPath id="id14"><path d="M 15.699219 9.652344 L 23.683594 9.652344 L 23.683594 16 L 15.699219 16 Z M 15.699219 9.652344 " clip-rule="nonzero"/></clipPath><clipPath id="id15"><path d="M 24.152344 14 L 30 14 L 30 16.789062 L 24.152344 16.789062 Z M 24.152344 14 " clip-rule="nonzero"/></clipPath><clipPath id="id16"><path d="M 29 14 L 37 14 L 37 16.789062 L 29 16.789062 Z M 29 14 " clip-rule="nonzero"/></clipPath><clipPath id="id17"><path d="M 32 9.53125 L 37.214844 9.53125 L 37.214844 15 L 32 15 Z M 32 9.53125 " clip-rule="nonzero"/></clipPath><clipPath id="id18"><path d="M 36 15 L 37.214844 15 L 37.214844 16.789062 L 36 16.789062 Z M 36 15 " clip-rule="nonzero"/></clipPath><clipPath id="id19"><path d="M 16.714844 22.160156 L 30.503906 22.160156 L 30.503906 24.339844 L 16.714844 24.339844 Z M 16.714844 22.160156 " clip-rule="nonzero"/></clipPath><clipPath id="id20"><path d="M 8.6875 18.195312 L 15.945312 18.195312 L 15.945312 26.179688 L 8.6875 26.179688 Z M 8.6875 18.195312 " clip-rule="nonzero"/></clipPath><clipPath id="id21"><path d="M 9 18.195312 L 15.945312 18.195312 L 15.945312 26 L 9 26 Z M 9 18.195312 " clip-rule="nonzero"/></clipPath><clipPath id="id22"><path d="M 8.6875 18.195312 L 15.945312 18.195312 L 15.945312 26 L 8.6875 26 Z M 8.6875 18.195312 " clip-rule="nonzero"/></clipPath><clipPath id="id23"><path d="M 33 19.289062 L 35 19.289062 L 35 25 L 33 25 Z M 33 19.289062 " clip-rule="nonzero"/></clipPath><clipPath id="id24"><path d="M 31.9375 19.289062 L 34 19.289062 L 34 25 L 31.9375 25 Z M 31.9375 19.289062 " clip-rule="nonzero"/></clipPath><clipPath id="id25"><path d="M 33 23 L 34 23 L 34 25.097656 L 33 25.097656 Z M 33 23 " clip-rule="nonzero"/></clipPath><clipPath id="id26"><path d="M 43 21 L 47.179688 21 L 47.179688 24 L 43 24 Z M 43 21 " clip-rule="nonzero"/></clipPath></defs><g clip-path="url(#id1)"><path fill="#f7df1e" d="M 1.269531 2.902344 L 7.800781 2.902344 L 7.800781 9.433594 L 1.269531 9.433594 Z M 1.269531 2.902344 " fill-opacity="1" fill-rule="nonzero"/></g><path fill="#000000" d="M 2.988281 8.363281 L 3.488281 8.058594 C 3.585938 8.230469 3.671875 8.375 3.882812 8.375 C 4.082031 8.375 4.210938 8.296875 4.210938 7.988281 L 4.210938 5.902344 L 4.824219 5.902344 L 4.824219 8 C 4.824219 8.632812 4.453125 8.921875 3.910156 8.921875 C 3.417969 8.921875 3.132812 8.667969 2.988281 8.363281 " fill-opacity="1" fill-rule="nonzero"/><g clip-path="url(#id2)"><path fill="#000000" d="M 5.160156 8.296875 L 5.660156 8.007812 C 5.789062 8.222656 5.960938 8.378906 6.261719 8.378906 C 6.519531 8.378906 6.679688 8.253906 6.679688 8.078125 C 6.679688 7.867188 6.511719 7.792969 6.234375 7.667969 L 6.078125 7.601562 C 5.636719 7.414062 5.34375 7.179688 5.34375 6.679688 C 5.34375 6.21875 5.691406 5.867188 6.242188 5.867188 C 6.632812 5.867188 6.914062 6.003906 7.113281 6.359375 L 6.636719 6.664062 C 6.53125 6.476562 6.417969 6.402344 6.242188 6.402344 C 6.0625 6.402344 5.949219 6.515625 5.949219 6.664062 C 5.949219 6.847656 6.0625 6.925781 6.324219 7.039062 L 6.476562 7.105469 C 7 7.328125 7.292969 7.554688 7.292969 8.066406 C 7.292969 8.621094 6.859375 8.921875 6.277344 8.921875 C 5.707031 8.921875 5.339844 8.652344 5.160156 8.296875 " fill-opacity="1" fill-rule="nonzero"/></g><g clip-path="url(#id3)"><path fill="#83cd29" d="M 21.523438 5.902344 C 21.492188 5.902344 21.464844 5.910156 21.4375 5.925781 L 20.621094 6.410156 C 20.566406 6.441406 20.535156 6.5 20.535156 6.5625 L 20.535156 7.53125 C 20.535156 7.59375 20.566406 7.652344 20.621094 7.683594 L 20.832031 7.808594 C 20.9375 7.863281 20.976562 7.863281 21.023438 7.863281 C 21.175781 7.863281 21.261719 7.765625 21.261719 7.601562 L 21.261719 6.644531 C 21.261719 6.632812 21.253906 6.621094 21.238281 6.621094 L 21.136719 6.621094 C 21.125 6.621094 21.113281 6.632812 21.113281 6.644531 L 21.113281 7.601562 C 21.113281 7.671875 21.039062 7.746094 20.917969 7.6875 L 20.695312 7.550781 C 20.6875 7.546875 20.679688 7.539062 20.679688 7.53125 L 20.679688 6.5625 C 20.679688 6.554688 20.6875 6.542969 20.695312 6.539062 L 21.511719 6.054688 C 21.519531 6.050781 21.527344 6.050781 21.535156 6.054688 L 22.351562 6.539062 C 22.359375 6.542969 22.363281 6.554688 22.363281 6.5625 L 22.363281 7.53125 C 22.363281 7.539062 22.359375 7.550781 22.351562 7.554688 L 21.535156 8.035156 C 21.527344 8.042969 21.519531 8.042969 21.511719 8.035156 L 21.300781 7.910156 C 21.292969 7.90625 21.285156 7.90625 21.28125 7.910156 C 21.222656 7.941406 21.210938 7.945312 21.15625 7.964844 C 21.144531 7.96875 21.121094 7.976562 21.164062 8 L 21.4375 8.167969 C 21.464844 8.183594 21.492188 8.191406 21.523438 8.191406 C 21.554688 8.191406 21.582031 8.183594 21.609375 8.167969 L 22.425781 7.683594 C 22.480469 7.652344 22.511719 7.59375 22.511719 7.53125 L 22.511719 6.5625 C 22.511719 6.5 22.480469 6.441406 22.425781 6.410156 L 21.609375 5.925781 C 21.582031 5.910156 21.554688 5.902344 21.523438 5.902344 Z M 21.742188 6.59375 C 21.507812 6.59375 21.371094 6.695312 21.371094 6.867188 C 21.371094 7.050781 21.507812 7.097656 21.730469 7.121094 C 22 7.148438 22.019531 7.1875 22.019531 7.242188 C 22.019531 7.335938 21.945312 7.378906 21.773438 7.378906 C 21.558594 7.378906 21.511719 7.320312 21.496094 7.210938 C 21.492188 7.199219 21.484375 7.191406 21.472656 7.191406 L 21.367188 7.191406 C 21.351562 7.191406 21.34375 7.199219 21.339844 7.214844 C 21.339844 7.355469 21.417969 7.523438 21.773438 7.523438 C 22.03125 7.523438 22.183594 7.417969 22.183594 7.234375 C 22.183594 7.054688 22.0625 7.007812 21.8125 6.972656 C 21.558594 6.9375 21.53125 6.921875 21.53125 6.859375 C 21.53125 6.808594 21.554688 6.742188 21.742188 6.742188 C 21.910156 6.742188 21.972656 6.78125 21.996094 6.894531 C 22 6.90625 22.007812 6.914062 22.019531 6.914062 L 22.125 6.914062 C 22.132812 6.914062 22.136719 6.910156 22.140625 6.90625 C 22.148438 6.902344 22.148438 6.894531 22.148438 6.886719 C 22.132812 6.6875 22.003906 6.59375 21.742188 6.59375 Z M 21.742188 6.59375 " fill-opacity="1" fill-rule="nonzero"/></g><g clip-path="url(#id4)"><path fill="#404137" d="M 16.714844 4.632812 C 16.703125 4.632812 16.695312 4.636719 16.6875 4.640625 C 16.667969 4.652344 16.660156 4.667969 16.660156 4.6875 L 16.660156 6.050781 C 16.660156 6.066406 16.65625 6.078125 16.644531 6.082031 C 16.632812 6.089844 16.621094 6.089844 16.605469 6.082031 L 16.390625 5.957031 C 16.355469 5.933594 16.320312 5.933594 16.285156 5.957031 L 15.417969 6.46875 C 15.386719 6.488281 15.367188 6.523438 15.367188 6.5625 L 15.367188 7.589844 C 15.367188 7.628906 15.382812 7.660156 15.417969 7.683594 L 16.285156 8.195312 C 16.320312 8.214844 16.355469 8.214844 16.390625 8.195312 L 17.257812 7.683594 C 17.292969 7.660156 17.308594 7.628906 17.308594 7.589844 L 17.308594 5.03125 C 17.308594 4.992188 17.289062 4.953125 17.253906 4.9375 L 16.738281 4.640625 C 16.730469 4.636719 16.722656 4.632812 16.714844 4.632812 Z M 11.136719 5.914062 C 11.121094 5.917969 11.105469 5.917969 11.089844 5.929688 L 10.222656 6.441406 C 10.1875 6.460938 10.171875 6.492188 10.171875 6.535156 L 10.171875 7.910156 C 10.171875 7.929688 10.183594 7.949219 10.199219 7.957031 C 10.214844 7.96875 10.234375 7.96875 10.25 7.957031 L 10.765625 7.65625 C 10.796875 7.636719 10.820312 7.601562 10.820312 7.5625 L 10.820312 6.917969 C 10.820312 6.882812 10.839844 6.84375 10.871094 6.828125 L 11.089844 6.695312 C 11.105469 6.6875 11.125 6.683594 11.144531 6.683594 C 11.160156 6.683594 11.179688 6.6875 11.195312 6.695312 L 11.414062 6.828125 C 11.445312 6.84375 11.464844 6.878906 11.464844 6.917969 L 11.464844 7.5625 C 11.464844 7.601562 11.488281 7.636719 11.519531 7.65625 L 12.035156 7.957031 C 12.050781 7.96875 12.070312 7.96875 12.085938 7.957031 C 12.101562 7.949219 12.113281 7.929688 12.113281 7.910156 L 12.113281 6.535156 C 12.113281 6.492188 12.097656 6.460938 12.0625 6.441406 L 11.195312 5.929688 C 11.179688 5.917969 11.164062 5.917969 11.148438 5.914062 Z M 18.925781 5.929688 C 18.90625 5.929688 18.890625 5.933594 18.875 5.941406 L 18.007812 6.457031 C 17.972656 6.476562 17.953125 6.511719 17.953125 6.546875 L 17.953125 7.574219 C 17.953125 7.613281 17.976562 7.648438 18.007812 7.667969 L 18.867188 8.171875 C 18.898438 8.1875 18.9375 8.191406 18.972656 8.171875 L 19.492188 7.875 C 19.507812 7.867188 19.519531 7.847656 19.519531 7.828125 C 19.519531 7.808594 19.511719 7.792969 19.492188 7.78125 L 18.621094 7.269531 C 18.605469 7.257812 18.59375 7.238281 18.59375 7.21875 L 18.59375 6.898438 C 18.59375 6.878906 18.605469 6.863281 18.621094 6.851562 L 18.890625 6.691406 C 18.910156 6.683594 18.929688 6.683594 18.945312 6.691406 L 19.214844 6.851562 C 19.234375 6.863281 19.242188 6.878906 19.242188 6.898438 L 19.242188 7.152344 C 19.242188 7.171875 19.25 7.1875 19.269531 7.199219 C 19.285156 7.207031 19.304688 7.207031 19.320312 7.199219 L 19.839844 6.890625 C 19.871094 6.871094 19.890625 6.835938 19.890625 6.796875 L 19.890625 6.546875 C 19.890625 6.507812 19.875 6.476562 19.839844 6.457031 L 18.976562 5.941406 C 18.960938 5.933594 18.945312 5.929688 18.925781 5.929688 Z M 16.335938 6.695312 C 16.339844 6.695312 16.34375 6.695312 16.347656 6.699219 L 16.644531 6.875 C 16.652344 6.878906 16.660156 6.886719 16.660156 6.898438 L 16.660156 7.25 C 16.660156 7.261719 16.652344 7.269531 16.644531 7.273438 L 16.347656 7.449219 C 16.339844 7.457031 16.332031 7.457031 16.320312 7.449219 L 16.023438 7.273438 C 16.015625 7.269531 16.011719 7.261719 16.011719 7.25 L 16.011719 6.898438 C 16.011719 6.886719 16.015625 6.878906 16.023438 6.875 L 16.320312 6.699219 C 16.324219 6.695312 16.328125 6.695312 16.335938 6.695312 Z M 16.335938 6.695312 " fill-opacity="1" fill-rule="nonzero"/></g><g clip-path="url(#id5)"><path fill="#83cd29" d="M 13.742188 5.921875 C 13.722656 5.921875 13.703125 5.925781 13.6875 5.9375 L 12.820312 6.449219 C 12.789062 6.46875 12.769531 6.503906 12.769531 6.542969 L 12.769531 7.570312 C 12.769531 7.609375 12.789062 7.640625 12.820312 7.664062 L 13.6875 8.175781 C 13.722656 8.195312 13.757812 8.195312 13.792969 8.175781 L 14.660156 7.664062 C 14.695312 7.640625 14.710938 7.609375 14.710938 7.570312 L 14.710938 6.542969 C 14.710938 6.503906 14.691406 6.46875 14.660156 6.449219 L 13.792969 5.9375 C 13.777344 5.925781 13.757812 5.921875 13.742188 5.921875 Z M 18.925781 6.839844 C 18.921875 6.839844 18.917969 6.839844 18.914062 6.839844 L 18.746094 6.941406 C 18.738281 6.945312 18.738281 6.949219 18.738281 6.957031 L 18.738281 7.15625 C 18.738281 7.160156 18.742188 7.167969 18.746094 7.171875 L 18.914062 7.269531 C 18.917969 7.273438 18.925781 7.273438 18.933594 7.269531 L 19.097656 7.171875 C 19.105469 7.167969 19.109375 7.160156 19.109375 7.15625 L 19.109375 6.957031 C 19.109375 6.949219 19.105469 6.945312 19.097656 6.941406 L 18.933594 6.839844 C 18.929688 6.839844 18.925781 6.839844 18.925781 6.839844 Z M 18.925781 6.839844 " fill-opacity="1" fill-rule="nonzero"/></g><g clip-path="url(#id6)"><path fill="#003764" d="M 30.195312 6.371094 L 30.890625 6.371094 L 30.890625 6.734375 L 29.714844 6.734375 L 29.714844 5.316406 L 30.195312 5.316406 Z M 31.203125 5.316406 L 31.6875 5.316406 L 31.6875 6.734375 L 31.203125 6.734375 Z M 32.996094 6.074219 L 33 6.074219 L 33 5.316406 L 33.457031 5.316406 L 33.457031 6.734375 L 32.984375 6.734375 L 32.507812 5.960938 L 32.503906 5.960938 L 32.503906 6.734375 L 32.046875 6.734375 L 32.046875 5.316406 L 32.542969 5.316406 Z M 35.242188 6.1875 C 35.242188 6.582031 35.011719 6.769531 34.527344 6.769531 C 34.046875 6.769531 33.8125 6.582031 33.8125 6.1875 L 33.8125 5.316406 L 34.296875 5.316406 L 34.296875 6.089844 C 34.296875 6.230469 34.296875 6.414062 34.53125 6.414062 C 34.765625 6.414062 34.757812 6.230469 34.757812 6.089844 L 34.757812 5.316406 L 35.242188 5.316406 Z M 36.0625 5.316406 L 36.296875 5.703125 L 36.53125 5.316406 L 37.066406 5.316406 L 36.5625 5.984375 L 37.121094 6.734375 L 36.539062 6.734375 L 36.273438 6.3125 L 35.996094 6.734375 L 35.441406 6.734375 L 36.007812 5.980469 L 35.492188 5.316406 Z M 36.0625 5.316406 " fill-opacity="1" fill-rule="nonzero"/></g><g clip-path="url(#id7)"><path fill="#009bde" d="M 25.003906 5.683594 L 25.003906 7.859375 L 27.410156 7.859375 L 27.410156 7.132812 L 25.808594 7.132812 L 25.808594 5.683594 Z M 25.003906 5.683594 " fill-opacity="1" fill-rule="nonzero"/></g><g clip-path="url(#id8)"><path fill="#003764" d="M 25.808594 4.957031 L 28.214844 4.957031 L 28.214844 7.132812 L 27.8125 7.132812 L 27.8125 7.859375 L 29.015625 7.859375 L 29.015625 4.230469 L 25.003906 4.230469 L 25.003906 5.316406 L 25.808594 5.316406 Z M 25.808594 4.957031 " fill-opacity="1" fill-rule="nonzero"/></g><g clip-path="url(#id9)"><path fill="#563d7c" d="M 39.28125 8.671875 C 39.28125 9.136719 39.660156 9.515625 40.125 9.515625 L 44.972656 9.515625 C 45.4375 9.515625 45.816406 9.136719 45.816406 8.671875 L 45.816406 3.824219 C 45.816406 3.359375 45.4375 2.980469 44.972656 2.980469 L 40.125 2.980469 C 39.660156 2.980469 39.28125 3.359375 39.28125 3.824219 Z M 39.28125 8.671875 " fill-opacity="1" fill-rule="nonzero"/></g><path fill="#ffffff" d="M 41.992188 5.871094 L 41.992188 4.945312 L 42.804688 4.945312 C 42.882812 4.945312 42.957031 4.953125 43.03125 4.964844 C 43.101562 4.980469 43.164062 5 43.222656 5.035156 C 43.277344 5.066406 43.320312 5.113281 43.355469 5.171875 C 43.386719 5.234375 43.402344 5.308594 43.402344 5.402344 C 43.402344 5.566406 43.355469 5.6875 43.253906 5.761719 C 43.15625 5.835938 43.027344 5.871094 42.871094 5.871094 Z M 41.121094 4.269531 L 41.121094 8.226562 L 43.039062 8.226562 C 43.214844 8.226562 43.386719 8.203125 43.554688 8.160156 C 43.722656 8.113281 43.875 8.046875 44.003906 7.953125 C 44.136719 7.863281 44.238281 7.742188 44.316406 7.597656 C 44.394531 7.449219 44.433594 7.277344 44.433594 7.078125 C 44.433594 6.832031 44.375 6.621094 44.253906 6.445312 C 44.132812 6.269531 43.953125 6.148438 43.707031 6.078125 C 43.886719 5.992188 44.019531 5.882812 44.109375 5.75 C 44.199219 5.617188 44.246094 5.449219 44.246094 5.25 C 44.246094 5.066406 44.214844 4.910156 44.15625 4.785156 C 44.09375 4.660156 44.007812 4.558594 43.898438 4.484375 C 43.785156 4.410156 43.652344 4.355469 43.5 4.320312 C 43.34375 4.289062 43.171875 4.269531 42.984375 4.269531 Z M 41.992188 7.550781 L 41.992188 6.464844 L 42.9375 6.464844 C 43.125 6.464844 43.277344 6.507812 43.394531 6.59375 C 43.507812 6.679688 43.566406 6.824219 43.566406 7.027344 C 43.566406 7.132812 43.546875 7.21875 43.511719 7.285156 C 43.476562 7.351562 43.429688 7.402344 43.371094 7.441406 C 43.3125 7.480469 43.242188 7.507812 43.164062 7.523438 C 43.089844 7.542969 43.007812 7.550781 42.921875 7.550781 Z M 41.992188 7.550781 " fill-opacity="1" fill-rule="nonzero"/><g clip-path="url(#id10)"><path fill="#f03c2e" d="M 54.417969 6.277344 L 51.566406 3.425781 C 51.484375 3.34375 51.382812 3.300781 51.265625 3.300781 C 51.152344 3.300781 51.050781 3.34375 50.96875 3.425781 L 50.378906 4.015625 L 51.128906 4.765625 C 51.304688 4.707031 51.503906 4.75 51.644531 4.886719 C 51.789062 5.035156 51.832031 5.207031 51.761719 5.40625 L 52.484375 6.128906 C 52.660156 6.066406 52.863281 6.105469 53.003906 6.246094 C 53.101562 6.34375 53.148438 6.464844 53.148438 6.601562 C 53.148438 6.738281 53.101562 6.859375 53.003906 6.957031 C 52.90625 7.054688 52.789062 7.101562 52.648438 7.101562 C 52.511719 7.101562 52.390625 7.054688 52.292969 6.957031 C 52.148438 6.808594 52.113281 6.59375 52.1875 6.410156 L 51.511719 5.734375 L 51.511719 7.511719 C 51.558594 7.535156 51.605469 7.570312 51.644531 7.605469 C 51.742188 7.703125 51.789062 7.824219 51.789062 7.960938 C 51.789062 8.097656 51.742188 8.21875 51.644531 8.316406 C 51.546875 8.414062 51.425781 8.460938 51.289062 8.460938 C 51.152344 8.460938 51.03125 8.414062 50.933594 8.316406 C 50.835938 8.21875 50.789062 8.097656 50.789062 7.960938 C 50.789062 7.824219 50.835938 7.703125 50.933594 7.605469 C 50.984375 7.558594 51.039062 7.523438 51.097656 7.496094 L 51.097656 5.703125 C 51.039062 5.679688 50.984375 5.644531 50.933594 5.59375 C 50.777344 5.4375 50.742188 5.253906 50.828125 5.046875 L 50.085938 4.308594 L 48.132812 6.261719 C 48.046875 6.34375 48.007812 6.441406 48.007812 6.558594 C 48.007812 6.675781 48.046875 6.773438 48.132812 6.855469 L 50.984375 9.707031 C 51.066406 9.789062 51.164062 9.832031 51.28125 9.832031 C 51.398438 9.832031 51.496094 9.789062 51.578125 9.707031 L 54.417969 6.875 C 54.5 6.792969 54.539062 6.691406 54.539062 6.574219 C 54.539062 6.460938 54.5 6.359375 54.417969 6.277344 " fill-opacity="1" fill-rule="nonzero"/></g><g clip-path="url(#id11)"><path fill="#a0dcf2" d="M 21.929688 15.464844 C 21.929688 15.863281 20.941406 16.183594 19.722656 16.183594 C 18.503906 16.183594 17.515625 15.863281 17.515625 15.464844 C 17.515625 15.066406 18.503906 14.742188 19.722656 14.742188 C 20.941406 14.742188 21.929688 15.066406 21.929688 15.464844 " fill-opacity="1" fill-rule="nonzero"/></g><g clip-path="url(#id12)"><g clip-path="url(#id13)"><path fill="#82bde7" d="M 21.929688 15.464844 C 21.929688 15.863281 20.941406 16.183594 19.722656 16.183594 C 18.503906 16.183594 17.515625 15.863281 17.515625 15.464844 C 17.515625 15.066406 18.503906 14.742188 19.722656 14.742188 C 20.941406 14.742188 21.929688 15.066406 21.929688 15.464844 " fill-opacity="1" fill-rule="nonzero"/></g></g><path fill="#a0dcf2" d="M 17.203125 13.34375 L 17.140625 13.550781 C 17.140625 13.550781 17.125 13.625 17.199219 13.640625 C 17.277344 13.636719 17.269531 13.570312 17.265625 13.546875 Z M 17.203125 13.34375 " fill-opacity="1" fill-rule="nonzero"/><g clip-path="url(#id14)"><path fill="#292929" d="M 23.617188 12.476562 L 23.621094 12.449219 C 22.976562 12.328125 22.3125 12.328125 21.910156 12.34375 C 21.976562 12.121094 21.996094 11.863281 21.996094 11.578125 C 21.996094 11.171875 21.832031 10.84375 21.5625 10.59375 C 21.609375 10.453125 21.671875 10.140625 21.5 9.742188 C 21.5 9.742188 21.199219 9.652344 20.515625 10.078125 C 20.25 10.019531 19.964844 9.988281 19.679688 9.988281 C 19.363281 9.988281 19.046875 10.023438 18.753906 10.101562 C 18.046875 9.652344 17.734375 9.742188 17.734375 9.742188 C 17.53125 10.21875 17.660156 10.566406 17.695312 10.65625 C 17.457031 10.894531 17.3125 11.203125 17.3125 11.578125 C 17.3125 11.863281 17.347656 12.117188 17.433594 12.339844 C 17.027344 12.328125 16.386719 12.332031 15.761719 12.449219 L 15.769531 12.476562 C 16.394531 12.359375 17.039062 12.355469 17.441406 12.367188 C 17.460938 12.414062 17.480469 12.457031 17.503906 12.5 C 17.105469 12.515625 16.425781 12.5625 15.773438 12.734375 L 15.78125 12.757812 C 16.4375 12.585938 17.125 12.539062 17.519531 12.527344 C 17.757812 12.941406 18.226562 13.210938 19.0625 13.292969 C 18.941406 13.367188 18.820312 13.496094 18.773438 13.707031 C 18.613281 13.78125 18.101562 13.957031 17.792969 13.464844 C 17.792969 13.464844 17.621094 13.171875 17.292969 13.148438 C 17.292969 13.148438 16.976562 13.144531 17.273438 13.332031 C 17.273438 13.332031 17.484375 13.425781 17.632812 13.78125 C 17.632812 13.78125 17.824219 14.382812 18.75 14.1875 L 18.75 14.808594 C 18.75 14.808594 18.730469 15.027344 18.515625 15.101562 C 18.300781 15.175781 18.386719 15.183594 18.523438 15.230469 C 18.523438 15.230469 19.121094 15.277344 19.121094 14.820312 L 19.121094 14.140625 C 19.121094 14.140625 19.097656 13.871094 19.242188 13.777344 L 19.242188 14.894531 C 19.242188 14.894531 19.230469 15.160156 19.082031 15.257812 C 18.9375 15.359375 18.984375 15.421875 19.199219 15.378906 C 19.199219 15.378906 19.613281 15.324219 19.632812 14.875 L 19.640625 13.75 L 19.742188 13.75 L 19.75 14.875 C 19.769531 15.324219 20.179688 15.378906 20.179688 15.378906 C 20.398438 15.421875 20.300781 15.257812 20.300781 15.257812 C 20.152344 15.160156 20.140625 14.894531 20.140625 14.894531 L 20.140625 13.789062 C 20.285156 13.890625 20.261719 14.140625 20.261719 14.140625 L 20.261719 14.820312 C 20.261719 15.277344 20.859375 15.230469 20.859375 15.230469 C 20.996094 15.1875 20.867188 15.101562 20.867188 15.101562 C 20.652344 15.03125 20.632812 14.808594 20.632812 14.808594 L 20.632812 13.921875 C 20.632812 13.578125 20.476562 13.394531 20.324219 13.296875 C 21.214844 13.214844 21.640625 12.945312 21.835938 12.527344 C 22.226562 12.539062 22.929688 12.582031 23.601562 12.757812 L 23.609375 12.734375 C 22.941406 12.558594 22.242188 12.511719 21.851562 12.5 C 21.867188 12.460938 21.886719 12.414062 21.898438 12.371094 C 22.296875 12.355469 22.964844 12.355469 23.617188 12.476562 " fill-opacity="1" fill-rule="nonzero"/></g><path fill="#f5cdb5" d="M 21.125 11.558594 C 21.316406 11.722656 21.429688 11.917969 21.429688 12.128906 C 21.429688 13.113281 20.640625 13.140625 19.671875 13.140625 C 18.703125 13.140625 17.914062 13.003906 17.914062 12.128906 C 17.914062 11.921875 18.027344 11.726562 18.214844 11.5625 C 18.53125 11.296875 19.066406 11.4375 19.671875 11.4375 C 20.277344 11.4375 20.808594 11.292969 21.125 11.5625 " fill-opacity="1" fill-rule="nonzero"/><path fill="#ffffff" d="M 19.089844 12.179688 C 19.089844 12.449219 18.925781 12.671875 18.722656 12.671875 C 18.519531 12.671875 18.355469 12.449219 18.355469 12.179688 C 18.355469 11.910156 18.519531 11.6875 18.722656 11.6875 C 18.925781 11.6875 19.089844 11.910156 19.089844 12.179688 " fill-opacity="1" fill-rule="nonzero"/><path fill="#b1645a" d="M 18.96875 12.1875 C 18.96875 12.367188 18.859375 12.511719 18.726562 12.511719 C 18.59375 12.511719 18.484375 12.367188 18.484375 12.1875 C 18.484375 12.003906 18.59375 11.859375 18.726562 11.859375 C 18.863281 11.859375 18.96875 12.003906 18.96875 12.1875 " fill-opacity="1" fill-rule="nonzero"/><path fill="#ffffff" d="M 21.046875 12.179688 C 21.046875 12.449219 20.886719 12.671875 20.683594 12.671875 C 20.480469 12.671875 20.316406 12.449219 20.316406 12.179688 C 20.316406 11.910156 20.480469 11.6875 20.683594 11.6875 C 20.886719 11.6875 21.046875 11.910156 21.046875 12.179688 " fill-opacity="1" fill-rule="nonzero"/><path fill="#b1645a" d="M 20.933594 12.1875 C 20.933594 12.367188 20.820312 12.511719 20.6875 12.511719 C 20.554688 12.511719 20.445312 12.367188 20.445312 12.1875 C 20.445312 12.003906 20.554688 11.859375 20.6875 11.859375 C 20.820312 11.859375 20.933594 12.003906 20.933594 12.1875 M 19.769531 12.617188 C 19.769531 12.664062 19.726562 12.699219 19.675781 12.699219 C 19.625 12.699219 19.585938 12.664062 19.585938 12.617188 C 19.585938 12.570312 19.625 12.53125 19.675781 12.53125 C 19.726562 12.53125 19.769531 12.570312 19.769531 12.617188 M 19.464844 12.832031 C 19.457031 12.8125 19.464844 12.800781 19.480469 12.796875 C 19.5 12.789062 19.511719 12.796875 19.519531 12.8125 C 19.542969 12.875 19.605469 12.917969 19.675781 12.917969 C 19.746094 12.917969 19.808594 12.875 19.832031 12.8125 C 19.839844 12.796875 19.851562 12.789062 19.871094 12.796875 C 19.890625 12.800781 19.894531 12.8125 19.890625 12.832031 C 19.851562 12.925781 19.78125 12.96875 19.675781 12.96875 C 19.570312 12.96875 19.5 12.925781 19.464844 12.832031 " fill-opacity="1" fill-rule="nonzero"/><path fill="#c5e6da" d="M 17.4375 13.222656 C 17.4375 13.246094 17.410156 13.261719 17.375 13.261719 C 17.339844 13.261719 17.308594 13.246094 17.308594 13.222656 C 17.308594 13.199219 17.339844 13.179688 17.375 13.179688 C 17.410156 13.179688 17.4375 13.199219 17.4375 13.222656 M 17.613281 13.3125 C 17.613281 13.335938 17.585938 13.355469 17.550781 13.355469 C 17.515625 13.355469 17.488281 13.335938 17.488281 13.3125 C 17.488281 13.292969 17.515625 13.273438 17.550781 13.273438 C 17.585938 13.273438 17.613281 13.292969 17.613281 13.3125 M 17.722656 13.433594 C 17.722656 13.457031 17.695312 13.472656 17.660156 13.472656 C 17.621094 13.472656 17.59375 13.457031 17.59375 13.433594 C 17.59375 13.410156 17.625 13.390625 17.660156 13.390625 C 17.695312 13.390625 17.722656 13.410156 17.722656 13.433594 M 17.820312 13.570312 C 17.820312 13.59375 17.792969 13.609375 17.757812 13.609375 C 17.722656 13.609375 17.691406 13.59375 17.691406 13.570312 C 17.691406 13.546875 17.722656 13.527344 17.757812 13.527344 C 17.792969 13.527344 17.820312 13.546875 17.820312 13.570312 M 17.929688 13.699219 C 17.929688 13.722656 17.898438 13.738281 17.863281 13.738281 C 17.828125 13.738281 17.800781 13.722656 17.800781 13.699219 C 17.800781 13.675781 17.828125 13.65625 17.863281 13.65625 C 17.898438 13.65625 17.929688 13.675781 17.929688 13.699219 M 18.074219 13.808594 C 18.074219 13.832031 18.046875 13.851562 18.011719 13.851562 C 17.976562 13.851562 17.949219 13.832031 17.949219 13.808594 C 17.949219 13.785156 17.976562 13.765625 18.011719 13.765625 C 18.046875 13.765625 18.074219 13.785156 18.074219 13.808594 " fill-opacity="1" fill-rule="nonzero"/><path fill="#c5e6da" d="M 18.28125 13.882812 C 18.28125 13.902344 18.253906 13.921875 18.21875 13.921875 C 18.183594 13.921875 18.152344 13.902344 18.152344 13.882812 C 18.152344 13.859375 18.183594 13.839844 18.21875 13.839844 C 18.253906 13.839844 18.28125 13.859375 18.28125 13.882812 " fill-opacity="1" fill-rule="nonzero"/><path fill="#c5e6da" d="M 18.484375 13.882812 C 18.484375 13.902344 18.457031 13.921875 18.421875 13.921875 C 18.386719 13.921875 18.359375 13.902344 18.359375 13.882812 C 18.359375 13.859375 18.386719 13.839844 18.421875 13.839844 C 18.457031 13.839844 18.484375 13.859375 18.484375 13.882812 " fill-opacity="1" fill-rule="nonzero"/><path fill="#c5e6da" d="M 18.695312 13.847656 C 18.695312 13.871094 18.664062 13.890625 18.628906 13.890625 C 18.59375 13.890625 18.566406 13.871094 18.566406 13.847656 C 18.566406 13.828125 18.59375 13.808594 18.628906 13.808594 C 18.664062 13.808594 18.695312 13.828125 18.695312 13.847656 " fill-opacity="1" fill-rule="nonzero"/><g clip-path="url(#id15)"><path fill="#00618a" d="M 24.203125 16.160156 L 24.628906 16.160156 L 24.628906 14.378906 L 25.292969 15.933594 C 25.367188 16.121094 25.476562 16.1875 25.683594 16.1875 C 25.894531 16.1875 25.996094 16.121094 26.074219 15.933594 L 26.738281 14.378906 L 26.738281 16.160156 L 27.164062 16.160156 L 27.164062 14.378906 C 27.164062 14.207031 27.097656 14.121094 26.960938 14.078125 C 26.636719 13.972656 26.421875 14.066406 26.320312 14.296875 L 25.671875 15.832031 L 25.042969 14.296875 C 24.949219 14.0625 24.730469 13.972656 24.402344 14.078125 C 24.269531 14.121094 24.203125 14.207031 24.203125 14.378906 Z M 27.519531 14.707031 L 27.945312 14.707031 L 27.945312 15.691406 C 27.941406 15.746094 27.960938 15.871094 28.195312 15.875 C 28.316406 15.875 29.117188 15.875 29.125 15.875 L 29.125 14.703125 L 29.550781 14.703125 C 29.554688 14.703125 29.550781 16.300781 29.550781 16.304688 C 29.554688 16.699219 29.089844 16.785156 28.875 16.792969 L 27.527344 16.792969 L 27.527344 16.488281 L 28.878906 16.488281 C 29.152344 16.457031 29.121094 16.3125 29.121094 16.265625 L 29.121094 16.144531 L 28.214844 16.144531 C 27.789062 16.140625 27.523438 15.945312 27.519531 15.722656 C 27.519531 15.703125 27.527344 14.71875 27.519531 14.707031 Z M 27.519531 14.707031 " fill-opacity="1" fill-rule="nonzero"/></g><g clip-path="url(#id16)"><path fill="#e48e00" d="M 29.878906 16.160156 L 31.109375 16.160156 C 31.253906 16.160156 31.390625 16.128906 31.503906 16.074219 C 31.6875 15.984375 31.777344 15.863281 31.777344 15.703125 L 31.777344 15.375 C 31.777344 15.242188 31.675781 15.121094 31.472656 15.039062 C 31.367188 14.996094 31.234375 14.972656 31.109375 14.972656 L 30.589844 14.972656 C 30.417969 14.972656 30.335938 14.917969 30.316406 14.796875 C 30.3125 14.78125 30.3125 14.769531 30.3125 14.757812 L 30.3125 14.550781 C 30.3125 14.539062 30.3125 14.527344 30.316406 14.511719 C 30.335938 14.421875 30.382812 14.394531 30.535156 14.378906 C 30.546875 14.378906 30.5625 14.375 30.574219 14.375 L 31.792969 14.375 L 31.792969 14.074219 L 30.59375 14.074219 C 30.421875 14.074219 30.332031 14.085938 30.25 14.113281 C 29.996094 14.195312 29.882812 14.332031 29.882812 14.5625 L 29.882812 14.824219 C 29.882812 15.027344 30.101562 15.203125 30.46875 15.242188 C 30.507812 15.246094 30.550781 15.25 30.589844 15.25 L 31.035156 15.25 C 31.050781 15.25 31.066406 15.25 31.078125 15.25 C 31.214844 15.261719 31.273438 15.289062 31.3125 15.339844 C 31.339844 15.367188 31.347656 15.394531 31.347656 15.421875 L 31.347656 15.683594 C 31.347656 15.71875 31.324219 15.757812 31.285156 15.792969 C 31.246094 15.828125 31.1875 15.851562 31.105469 15.855469 C 31.085938 15.855469 31.074219 15.859375 31.058594 15.859375 L 29.878906 15.859375 Z M 34.441406 15.636719 C 34.441406 15.945312 34.660156 16.121094 35.097656 16.15625 C 35.140625 16.160156 35.179688 16.160156 35.222656 16.160156 L 36.335938 16.160156 L 36.335938 15.859375 L 35.214844 15.859375 C 34.964844 15.859375 34.867188 15.792969 34.867188 15.632812 L 34.867188 14.074219 L 34.441406 14.074219 Z M 32.050781 15.652344 L 32.050781 14.578125 C 32.050781 14.304688 32.230469 14.140625 32.589844 14.089844 C 32.628906 14.082031 32.664062 14.078125 32.703125 14.078125 L 33.515625 14.078125 C 33.554688 14.078125 33.59375 14.082031 33.632812 14.089844 C 33.992188 14.140625 34.171875 14.304688 34.171875 14.578125 L 34.171875 15.652344 C 34.171875 15.875 34.097656 15.992188 33.917969 16.070312 L 34.339844 16.472656 L 33.84375 16.472656 L 33.503906 16.144531 L 33.160156 16.167969 L 32.703125 16.167969 C 32.625 16.167969 32.542969 16.15625 32.453125 16.132812 C 32.179688 16.054688 32.050781 15.902344 32.050781 15.652344 Z M 32.511719 15.625 C 32.511719 15.640625 32.515625 15.65625 32.519531 15.671875 C 32.542969 15.796875 32.65625 15.867188 32.824219 15.867188 L 33.210938 15.867188 L 32.855469 15.527344 L 33.351562 15.527344 L 33.660156 15.824219 C 33.71875 15.789062 33.753906 15.742188 33.769531 15.679688 C 33.773438 15.664062 33.773438 15.648438 33.773438 15.632812 L 33.773438 14.605469 C 33.773438 14.59375 33.773438 14.578125 33.769531 14.5625 C 33.742188 14.449219 33.632812 14.382812 33.46875 14.382812 L 32.824219 14.382812 C 32.632812 14.382812 32.511719 14.46875 32.511719 14.605469 Z M 32.511719 15.625 " fill-opacity="1" fill-rule="nonzero"/></g><g clip-path="url(#id17)"><path fill="#00618a" d="M 36.710938 13.574219 C 36.445312 13.570312 36.246094 13.59375 36.074219 13.671875 C 36.027344 13.691406 35.949219 13.691406 35.941406 13.757812 C 35.96875 13.789062 35.972656 13.832031 35.992188 13.867188 C 36.035156 13.9375 36.101562 14.03125 36.164062 14.082031 C 36.230469 14.136719 36.300781 14.191406 36.375 14.238281 C 36.503906 14.324219 36.644531 14.371094 36.769531 14.453125 C 36.84375 14.5 36.914062 14.5625 36.984375 14.617188 C 37.019531 14.644531 37.042969 14.6875 37.089844 14.707031 L 37.089844 14.699219 C 37.066406 14.664062 37.058594 14.621094 37.039062 14.585938 L 36.941406 14.484375 C 36.847656 14.351562 36.726562 14.234375 36.597656 14.136719 C 36.496094 14.058594 36.265625 13.953125 36.222656 13.828125 L 36.21875 13.820312 C 36.289062 13.8125 36.375 13.785156 36.441406 13.765625 C 36.554688 13.734375 36.652344 13.742188 36.769531 13.710938 L 36.925781 13.664062 L 36.925781 13.632812 C 36.867188 13.566406 36.824219 13.484375 36.761719 13.425781 C 36.59375 13.273438 36.414062 13.125 36.226562 13 C 36.121094 12.929688 35.992188 12.882812 35.882812 12.824219 C 35.84375 12.804688 35.777344 12.796875 35.753906 12.761719 C 35.695312 12.683594 35.664062 12.585938 35.621094 12.496094 C 35.527344 12.304688 35.433594 12.09375 35.351562 11.894531 C 35.296875 11.757812 35.257812 11.621094 35.1875 11.5 C 34.847656 10.910156 34.484375 10.554688 33.917969 10.203125 C 33.796875 10.128906 33.652344 10.101562 33.5 10.0625 L 33.253906 10.046875 C 33.203125 10.023438 33.152344 9.960938 33.105469 9.929688 C 32.917969 9.804688 32.4375 9.53125 32.300781 9.886719 C 32.210938 10.113281 32.429688 10.335938 32.507812 10.449219 C 32.5625 10.527344 32.632812 10.621094 32.671875 10.710938 C 32.699219 10.769531 32.703125 10.828125 32.722656 10.890625 C 32.777344 11.046875 32.824219 11.214844 32.894531 11.355469 C 32.929688 11.429688 32.96875 11.503906 33.015625 11.570312 C 33.042969 11.609375 33.089844 11.628906 33.097656 11.6875 C 33.050781 11.757812 33.046875 11.863281 33.023438 11.949219 C 32.90625 12.339844 32.949219 12.820312 33.121094 13.109375 C 33.171875 13.199219 33.292969 13.386719 33.464844 13.316406 C 33.609375 13.25 33.578125 13.054688 33.621094 12.882812 C 33.628906 12.839844 33.625 12.8125 33.640625 12.785156 L 33.640625 12.792969 L 33.777344 13.078125 C 33.875 13.246094 34.050781 13.425781 34.203125 13.542969 C 34.28125 13.605469 34.339844 13.714844 34.441406 13.75 L 34.441406 13.742188 L 34.433594 13.742188 C 34.414062 13.710938 34.382812 13.695312 34.359375 13.671875 C 34.300781 13.609375 34.234375 13.535156 34.1875 13.464844 C 34.050781 13.269531 33.929688 13.054688 33.820312 12.832031 C 33.769531 12.726562 33.722656 12.609375 33.679688 12.503906 C 33.664062 12.460938 33.664062 12.398438 33.628906 12.375 C 33.578125 12.457031 33.507812 12.519531 33.472656 12.613281 C 33.410156 12.761719 33.402344 12.945312 33.382812 13.132812 C 33.367188 13.140625 33.375 13.136719 33.367188 13.140625 C 33.261719 13.117188 33.226562 13.003906 33.1875 12.90625 C 33.089844 12.660156 33.070312 12.265625 33.15625 11.980469 C 33.179688 11.90625 33.28125 11.675781 33.238281 11.609375 C 33.21875 11.542969 33.15625 11.503906 33.121094 11.453125 C 33.074219 11.386719 33.03125 11.304688 33 11.230469 C 32.921875 11.039062 32.882812 10.824219 32.800781 10.628906 C 32.757812 10.539062 32.691406 10.445312 32.636719 10.363281 C 32.574219 10.273438 32.503906 10.203125 32.457031 10.09375 C 32.4375 10.054688 32.414062 9.992188 32.441406 9.953125 C 32.445312 9.925781 32.460938 9.910156 32.484375 9.90625 C 32.527344 9.871094 32.648438 9.917969 32.695312 9.9375 C 32.8125 9.988281 32.914062 10.039062 33.015625 10.109375 C 33.0625 10.144531 33.113281 10.210938 33.171875 10.230469 L 33.238281 10.230469 C 33.34375 10.253906 33.460938 10.238281 33.558594 10.269531 C 33.734375 10.324219 33.890625 10.410156 34.03125 10.507812 C 34.460938 10.792969 34.8125 11.203125 35.054688 11.691406 C 35.089844 11.769531 35.109375 11.84375 35.140625 11.929688 C 35.210938 12.09375 35.296875 12.269531 35.367188 12.433594 C 35.433594 12.597656 35.5 12.761719 35.597656 12.898438 C 35.648438 12.972656 35.84375 13.007812 35.933594 13.050781 C 35.996094 13.078125 36.097656 13.105469 36.15625 13.144531 C 36.269531 13.214844 36.378906 13.300781 36.484375 13.378906 C 36.539062 13.421875 36.703125 13.507812 36.710938 13.578125 Z M 36.710938 13.574219 " fill-opacity="1" fill-rule="nonzero"/></g><path fill="#00618a" d="M 33.375 10.566406 C 33.320312 10.566406 33.28125 10.574219 33.238281 10.582031 L 33.238281 10.589844 L 33.246094 10.589844 C 33.273438 10.648438 33.320312 10.683594 33.351562 10.734375 L 33.425781 10.898438 L 33.433594 10.890625 C 33.480469 10.855469 33.5 10.800781 33.5 10.71875 C 33.480469 10.695312 33.480469 10.671875 33.464844 10.644531 C 33.441406 10.613281 33.398438 10.59375 33.375 10.566406 Z M 33.375 10.566406 " fill-opacity="1" fill-rule="evenodd"/><g clip-path="url(#id18)"><path fill="#e48e00" d="M 36.535156 15.851562 C 36.535156 16.050781 36.683594 16.183594 36.851562 16.183594 C 37.015625 16.183594 37.164062 16.050781 37.164062 15.851562 C 37.164062 15.652344 37.015625 15.519531 36.851562 15.519531 C 36.683594 15.519531 36.535156 15.652344 36.535156 15.851562 Z M 37.09375 15.851562 C 37.09375 16.003906 36.984375 16.113281 36.847656 16.113281 C 36.710938 16.113281 36.605469 16.003906 36.605469 15.851562 C 36.605469 15.699219 36.710938 15.585938 36.847656 15.585938 C 36.984375 15.585938 37.09375 15.699219 37.09375 15.851562 Z M 36.933594 16.042969 L 37.003906 16.042969 L 36.902344 15.875 C 36.957031 15.867188 37 15.839844 37 15.769531 C 37 15.691406 36.953125 15.660156 36.863281 15.660156 L 36.722656 15.660156 L 36.722656 16.042969 L 36.785156 16.042969 L 36.785156 15.878906 L 36.839844 15.878906 Z M 36.785156 15.824219 L 36.785156 15.714844 L 36.855469 15.714844 C 36.890625 15.714844 36.933594 15.722656 36.933594 15.765625 C 36.933594 15.820312 36.894531 15.824219 36.847656 15.824219 Z M 36.785156 15.824219 " fill-opacity="1" fill-rule="evenodd"/></g><g clip-path="url(#id19)"><path fill="#ffffff" d="M 17.65625 23.035156 L 16.996094 23.035156 L 16.996094 22.335938 L 17.691406 22.335938 C 17.949219 22.335938 18.074219 22.453125 18.074219 22.691406 C 18.074219 22.917969 17.9375 23.035156 17.65625 23.035156 M 18.132812 22.328125 C 18.042969 22.242188 17.914062 22.199219 17.753906 22.199219 L 16.804688 22.207031 L 16.804688 23.875 L 16.996094 23.875 L 16.996094 23.164062 L 17.699219 23.164062 C 17.875 23.164062 18.015625 23.121094 18.117188 23.035156 C 18.21875 22.953125 18.265625 22.832031 18.265625 22.683594 C 18.265625 22.53125 18.222656 22.414062 18.132812 22.328125 Z M 19.367188 23.523438 C 19.347656 23.582031 19.316406 23.628906 19.273438 23.667969 C 19.1875 23.753906 19.058594 23.796875 18.882812 23.796875 C 18.726562 23.796875 18.605469 23.753906 18.519531 23.671875 C 18.433594 23.585938 18.394531 23.472656 18.394531 23.328125 C 18.394531 23.253906 18.402344 23.1875 18.425781 23.132812 C 18.449219 23.074219 18.480469 23.027344 18.523438 22.984375 C 18.609375 22.902344 18.730469 22.859375 18.882812 22.859375 C 19.222656 22.859375 19.394531 23.015625 19.394531 23.328125 C 19.394531 23.402344 19.382812 23.46875 19.367188 23.523438 M 19.398438 22.910156 C 19.285156 22.796875 19.113281 22.742188 18.882812 22.742188 C 18.667969 22.742188 18.503906 22.800781 18.386719 22.914062 C 18.28125 23.015625 18.226562 23.152344 18.226562 23.328125 C 18.226562 23.503906 18.28125 23.640625 18.390625 23.75 C 18.449219 23.804688 18.519531 23.847656 18.601562 23.875 C 18.679688 23.898438 18.777344 23.910156 18.882812 23.910156 C 19.109375 23.910156 19.28125 23.855469 19.402344 23.746094 C 19.507812 23.644531 19.558594 23.507812 19.558594 23.328125 C 19.558594 23.148438 19.507812 23.007812 19.398438 22.910156 Z M 20.839844 23.574219 C 20.839844 23.796875 20.648438 23.910156 20.265625 23.910156 C 20.148438 23.910156 20.050781 23.902344 19.96875 23.886719 C 19.890625 23.871094 19.824219 23.84375 19.773438 23.808594 C 19.738281 23.78125 19.707031 23.746094 19.683594 23.699219 C 19.660156 23.65625 19.644531 23.601562 19.640625 23.535156 L 19.816406 23.53125 C 19.816406 23.621094 19.847656 23.6875 19.910156 23.726562 C 19.976562 23.777344 20.097656 23.800781 20.265625 23.800781 C 20.535156 23.800781 20.667969 23.730469 20.667969 23.589844 C 20.667969 23.507812 20.625 23.453125 20.535156 23.421875 C 20.515625 23.414062 20.40625 23.398438 20.207031 23.375 C 20.011719 23.347656 19.886719 23.324219 19.835938 23.304688 C 19.730469 23.261719 19.679688 23.179688 19.679688 23.066406 C 19.679688 22.953125 19.726562 22.871094 19.820312 22.816406 C 19.867188 22.792969 19.925781 22.773438 19.996094 22.761719 C 20.066406 22.75 20.148438 22.742188 20.238281 22.742188 C 20.609375 22.742188 20.792969 22.863281 20.792969 23.109375 L 20.625 23.109375 C 20.625 22.9375 20.492188 22.851562 20.234375 22.851562 C 20.101562 22.851562 20.003906 22.867188 19.9375 22.902344 C 19.875 22.9375 19.84375 22.992188 19.84375 23.0625 C 19.84375 23.128906 19.886719 23.179688 19.972656 23.207031 C 20.023438 23.222656 20.140625 23.242188 20.328125 23.261719 C 20.492188 23.277344 20.605469 23.300781 20.667969 23.328125 C 20.785156 23.375 20.84375 23.457031 20.84375 23.574219 Z M 21.542969 23.875 L 21.46875 23.886719 L 21.425781 23.890625 C 21.308594 23.890625 21.222656 23.875 21.171875 23.835938 C 21.121094 23.800781 21.09375 23.742188 21.09375 23.652344 L 21.09375 22.890625 L 20.882812 22.890625 L 20.882812 22.777344 L 21.09375 22.777344 L 21.09375 22.417969 L 21.257812 22.417969 L 21.257812 22.777344 L 21.542969 22.777344 L 21.542969 22.890625 L 21.257812 22.890625 L 21.257812 23.632812 C 21.257812 23.6875 21.273438 23.726562 21.300781 23.746094 C 21.328125 23.765625 21.378906 23.777344 21.449219 23.777344 C 21.460938 23.777344 21.472656 23.777344 21.484375 23.777344 C 21.496094 23.773438 21.515625 23.769531 21.539062 23.761719 L 21.542969 23.878906 Z M 22.664062 23.625 C 22.621094 23.664062 22.570312 23.691406 22.515625 23.710938 C 22.457031 23.730469 22.390625 23.742188 22.316406 23.742188 C 21.976562 23.742188 21.808594 23.59375 21.808594 23.300781 C 21.808594 23.164062 21.851562 23.054688 21.9375 22.976562 C 22.027344 22.898438 22.148438 22.859375 22.304688 22.859375 C 22.464844 22.859375 22.585938 22.902344 22.667969 22.980469 C 22.75 23.058594 22.792969 23.160156 22.792969 23.292969 C 22.792969 23.4375 22.75 23.546875 22.664062 23.625 M 22.953125 22.78125 L 22.792969 22.78125 L 22.789062 22.96875 C 22.71875 22.890625 22.667969 22.84375 22.636719 22.824219 C 22.546875 22.769531 22.429688 22.742188 22.285156 22.742188 C 22.070312 22.742188 21.910156 22.792969 21.800781 22.894531 C 21.691406 22.988281 21.640625 23.125 21.640625 23.300781 C 21.640625 23.386719 21.652344 23.464844 21.679688 23.535156 C 21.707031 23.601562 21.746094 23.660156 21.796875 23.710938 C 21.910156 23.808594 22.066406 23.855469 22.269531 23.855469 C 22.515625 23.855469 22.691406 23.785156 22.792969 23.644531 L 22.792969 23.839844 C 22.792969 23.964844 22.753906 24.0625 22.679688 24.128906 C 22.605469 24.195312 22.484375 24.230469 22.3125 24.230469 C 22.152344 24.230469 22.039062 24.207031 21.96875 24.160156 C 21.917969 24.125 21.882812 24.0625 21.863281 23.976562 L 21.695312 23.976562 C 21.714844 24.097656 21.765625 24.1875 21.84375 24.242188 C 21.9375 24.304688 22.097656 24.335938 22.316406 24.335938 C 22.742188 24.335938 22.953125 24.171875 22.953125 23.839844 Z M 23.832031 22.890625 C 23.785156 22.882812 23.738281 22.878906 23.699219 22.878906 C 23.429688 22.878906 23.296875 23.03125 23.296875 23.339844 L 23.296875 23.875 L 23.136719 23.875 L 23.132812 22.78125 L 23.296875 22.78125 L 23.296875 22.976562 L 23.304688 22.976562 C 23.332031 22.898438 23.375 22.839844 23.433594 22.800781 C 23.5 22.761719 23.597656 22.742188 23.726562 22.742188 L 23.835938 22.742188 L 23.835938 22.890625 Z M 23.984375 23.257812 C 24.003906 23.132812 24.050781 23.035156 24.125 22.96875 C 24.167969 22.929688 24.222656 22.898438 24.28125 22.878906 C 24.339844 22.859375 24.40625 22.851562 24.480469 22.851562 C 24.625 22.851562 24.742188 22.890625 24.835938 22.976562 C 24.925781 23.058594 24.972656 23.152344 24.972656 23.257812 L 23.984375 23.257812 M 24.988281 22.917969 C 24.929688 22.859375 24.859375 22.816406 24.777344 22.785156 C 24.691406 22.757812 24.59375 22.742188 24.480469 22.742188 C 24.269531 22.742188 24.105469 22.796875 23.992188 22.898438 C 23.875 23 23.816406 23.140625 23.816406 23.316406 C 23.816406 23.496094 23.871094 23.636719 23.984375 23.738281 C 24.105469 23.855469 24.273438 23.910156 24.496094 23.910156 C 24.582031 23.910156 24.664062 23.902344 24.738281 23.878906 C 24.8125 23.859375 24.878906 23.828125 24.933594 23.792969 C 25.03125 23.71875 25.09375 23.625 25.121094 23.519531 L 24.945312 23.519531 C 24.882812 23.707031 24.734375 23.800781 24.492188 23.800781 C 24.324219 23.800781 24.191406 23.753906 24.101562 23.660156 C 24.023438 23.582031 23.984375 23.480469 23.984375 23.355469 L 25.144531 23.355469 C 25.144531 23.171875 25.09375 23.027344 24.988281 22.917969 Z M 26.859375 23.425781 C 26.859375 23.75 26.609375 23.914062 26.113281 23.914062 C 25.8125 23.914062 25.59375 23.859375 25.457031 23.746094 C 25.34375 23.652344 25.289062 23.515625 25.289062 23.324219 L 25.488281 23.324219 C 25.488281 23.628906 25.695312 23.78125 26.113281 23.78125 C 26.3125 23.78125 26.453125 23.75 26.542969 23.6875 C 26.617188 23.632812 26.65625 23.546875 26.65625 23.429688 C 26.65625 23.3125 26.605469 23.230469 26.503906 23.1875 C 26.445312 23.160156 26.304688 23.128906 26.078125 23.089844 C 25.792969 23.046875 25.609375 23 25.527344 22.953125 C 25.40625 22.886719 25.34375 22.773438 25.34375 22.613281 C 25.34375 22.464844 25.394531 22.355469 25.5 22.28125 C 25.609375 22.203125 25.800781 22.160156 26.074219 22.160156 C 26.5625 22.160156 26.804688 22.332031 26.804688 22.675781 L 26.605469 22.675781 C 26.605469 22.417969 26.421875 22.289062 26.058594 22.289062 C 25.875 22.289062 25.742188 22.316406 25.660156 22.367188 C 25.578125 22.421875 25.539062 22.503906 25.539062 22.609375 C 25.539062 22.722656 25.589844 22.800781 25.691406 22.84375 C 25.746094 22.871094 25.90625 22.90625 26.175781 22.953125 C 26.425781 22.992188 26.59375 23.039062 26.679688 23.09375 C 26.800781 23.15625 26.859375 23.269531 26.859375 23.425781 Z M 28.492188 23.59375 C 28.417969 23.65625 28.332031 23.703125 28.238281 23.734375 C 28.144531 23.765625 28.039062 23.78125 27.921875 23.78125 C 27.683594 23.78125 27.488281 23.714844 27.339844 23.578125 C 27.195312 23.445312 27.121094 23.265625 27.121094 23.039062 C 27.121094 22.804688 27.195312 22.621094 27.339844 22.488281 C 27.488281 22.359375 27.679688 22.292969 27.921875 22.292969 C 28.167969 22.292969 28.359375 22.359375 28.5 22.5 C 28.574219 22.566406 28.628906 22.644531 28.664062 22.734375 C 28.699219 22.824219 28.714844 22.925781 28.714844 23.039062 C 28.714844 23.273438 28.640625 23.457031 28.496094 23.59375 M 28.601562 23.703125 C 28.707031 23.628906 28.785156 23.53125 28.832031 23.421875 C 28.882812 23.3125 28.910156 23.183594 28.910156 23.039062 C 28.910156 22.78125 28.828125 22.574219 28.664062 22.417969 C 28.574219 22.332031 28.46875 22.265625 28.34375 22.226562 C 28.222656 22.183594 28.078125 22.160156 27.921875 22.160156 C 27.609375 22.160156 27.367188 22.242188 27.191406 22.398438 C 27.015625 22.554688 26.925781 22.769531 26.925781 23.039062 C 26.925781 23.300781 27.015625 23.515625 27.195312 23.675781 C 27.371094 23.835938 27.613281 23.917969 27.921875 23.917969 C 28.042969 23.917969 28.148438 23.910156 28.238281 23.890625 C 28.328125 23.875 28.40625 23.847656 28.46875 23.8125 L 28.765625 24.027344 L 28.890625 23.910156 Z M 30.414062 23.875 L 29.039062 23.875 L 29.039062 22.203125 L 29.230469 22.199219 L 29.230469 23.734375 L 30.414062 23.734375 Z M 30.414062 23.875 " fill-opacity="1" fill-rule="nonzero"/></g><g clip-path="url(#id20)"><path fill="#000000" d="M 15.816406 23.164062 C 15.773438 23.03125 15.664062 22.9375 15.519531 22.914062 C 15.449219 22.90625 15.371094 22.910156 15.277344 22.929688 C 15.117188 22.960938 14.996094 22.976562 14.910156 22.976562 C 15.242188 22.40625 15.507812 21.753906 15.664062 21.140625 C 15.914062 20.152344 15.777344 19.699219 15.625 19.496094 C 15.210938 18.953125 14.609375 18.664062 13.882812 18.652344 C 13.496094 18.648438 13.15625 18.726562 12.976562 18.785156 C 12.8125 18.753906 12.636719 18.738281 12.449219 18.734375 C 12.101562 18.730469 11.792969 18.808594 11.527344 18.96875 C 11.382812 18.917969 11.148438 18.84375 10.875 18.800781 C 10.238281 18.691406 9.726562 18.777344 9.351562 19.046875 C 8.898438 19.378906 8.6875 19.949219 8.726562 20.75 C 8.738281 21.003906 8.875 21.773438 9.09375 22.503906 C 9.21875 22.925781 9.351562 23.277344 9.492188 23.542969 C 9.6875 23.925781 9.898438 24.148438 10.132812 24.230469 C 10.261719 24.273438 10.503906 24.304688 10.753906 24.089844 C 10.785156 24.128906 10.828125 24.167969 10.886719 24.207031 C 10.957031 24.253906 11.046875 24.292969 11.132812 24.3125 C 11.449219 24.394531 11.746094 24.375 11.996094 24.261719 C 12 24.308594 12 24.351562 12 24.390625 C 12.003906 24.449219 12.003906 24.511719 12.007812 24.566406 C 12.023438 24.949219 12.046875 25.246094 12.121094 25.453125 C 12.125 25.464844 12.132812 25.484375 12.136719 25.503906 C 12.175781 25.621094 12.238281 25.816406 12.398438 25.972656 C 12.5625 26.132812 12.761719 26.179688 12.945312 26.179688 C 13.035156 26.179688 13.125 26.167969 13.199219 26.152344 C 13.476562 26.089844 13.785156 26 14.011719 25.671875 C 14.222656 25.359375 14.324219 24.894531 14.34375 24.15625 C 14.347656 24.136719 14.347656 24.117188 14.351562 24.097656 C 14.351562 24.082031 14.355469 24.070312 14.355469 24.058594 L 14.40625 24.0625 L 14.417969 24.0625 C 14.699219 24.074219 15.039062 24.015625 15.246094 23.914062 C 15.414062 23.835938 15.941406 23.550781 15.816406 23.164062 " fill-opacity="1" fill-rule="nonzero"/></g><g clip-path="url(#id21)"><path fill="#336791" d="M 15.339844 23.238281 C 14.511719 23.414062 14.457031 23.125 14.457031 23.125 C 15.332031 21.792969 15.695312 20.101562 15.378906 19.6875 C 14.519531 18.558594 13.03125 19.09375 13.003906 19.109375 L 12.996094 19.109375 C 12.832031 19.074219 12.648438 19.054688 12.445312 19.050781 C 12.070312 19.042969 11.785156 19.152344 11.570312 19.320312 C 11.570312 19.320312 8.910156 18.195312 9.035156 20.734375 C 9.058594 21.273438 9.789062 24.816406 10.65625 23.746094 C 10.972656 23.355469 11.28125 23.023438 11.28125 23.023438 C 11.433594 23.128906 11.613281 23.179688 11.804688 23.160156 L 11.820312 23.148438 C 11.816406 23.195312 11.816406 23.246094 11.824219 23.300781 C 11.601562 23.558594 11.667969 23.601562 11.222656 23.695312 C 10.769531 23.792969 11.035156 23.960938 11.207031 24.007812 C 11.417969 24.0625 11.90625 24.136719 12.234375 23.664062 L 12.21875 23.71875 C 12.308594 23.792969 12.371094 24.1875 12.359375 24.546875 C 12.347656 24.90625 12.34375 25.152344 12.410156 25.34375 C 12.480469 25.539062 12.550781 25.972656 13.136719 25.84375 C 13.628906 25.734375 13.882812 25.453125 13.917969 24.988281 C 13.941406 24.65625 14 24.703125 14.003906 24.410156 L 14.046875 24.269531 C 14.101562 23.816406 14.054688 23.671875 14.359375 23.742188 L 14.433594 23.746094 C 14.65625 23.757812 14.945312 23.710938 15.117188 23.628906 C 15.484375 23.453125 15.703125 23.160156 15.339844 23.238281 " fill-opacity="1" fill-rule="nonzero"/></g><path fill="#ffffff" d="M 11.722656 20.972656 C 11.648438 20.964844 11.582031 20.972656 11.546875 21 C 11.527344 21.015625 11.523438 21.03125 11.519531 21.042969 C 11.515625 21.074219 11.539062 21.109375 11.550781 21.128906 C 11.589844 21.179688 11.644531 21.214844 11.699219 21.222656 C 11.707031 21.222656 11.714844 21.222656 11.722656 21.222656 C 11.8125 21.222656 11.894531 21.152344 11.902344 21.097656 C 11.910156 21.03125 11.816406 20.988281 11.722656 20.972656 " fill-opacity="1" fill-rule="nonzero"/><path fill="#ffffff" d="M 14.199219 20.976562 C 14.191406 20.921875 14.101562 20.910156 14.015625 20.921875 C 13.929688 20.933594 13.84375 20.972656 13.851562 21.027344 C 13.855469 21.066406 13.929688 21.136719 14.015625 21.136719 C 14.019531 21.136719 14.027344 21.136719 14.035156 21.132812 C 14.09375 21.125 14.132812 21.089844 14.152344 21.066406 C 14.183594 21.035156 14.199219 21 14.199219 20.976562 " fill-opacity="1" fill-rule="nonzero"/><g clip-path="url(#id22)"><path fill="#ffffff" d="M 15.617188 23.21875 C 15.585938 23.121094 15.484375 23.089844 15.316406 23.125 C 14.8125 23.230469 14.632812 23.15625 14.574219 23.113281 C 14.964844 22.503906 15.285156 21.765625 15.457031 21.078125 C 15.539062 20.753906 15.585938 20.449219 15.589844 20.203125 C 15.59375 19.933594 15.546875 19.734375 15.457031 19.613281 C 15.082031 19.125 14.535156 18.863281 13.871094 18.855469 C 13.414062 18.847656 13.03125 18.96875 12.953125 19.003906 C 12.796875 18.960938 12.625 18.9375 12.441406 18.933594 C 12.097656 18.929688 11.800781 19.011719 11.554688 19.183594 C 11.449219 19.144531 11.175781 19.046875 10.839844 18.992188 C 10.257812 18.894531 9.796875 18.96875 9.464844 19.207031 C 9.070312 19.492188 8.890625 20.003906 8.925781 20.726562 C 8.9375 20.96875 9.070312 21.71875 9.285156 22.433594 C 9.566406 23.375 9.871094 23.910156 10.191406 24.019531 C 10.226562 24.03125 10.273438 24.039062 10.320312 24.039062 C 10.4375 24.039062 10.578125 23.988281 10.730469 23.804688 C 10.976562 23.496094 11.207031 23.242188 11.292969 23.148438 C 11.417969 23.21875 11.558594 23.253906 11.699219 23.257812 C 11.699219 23.261719 11.699219 23.265625 11.699219 23.269531 C 11.671875 23.304688 11.648438 23.335938 11.628906 23.363281 C 11.53125 23.488281 11.511719 23.515625 11.195312 23.582031 C 11.105469 23.601562 10.867188 23.652344 10.863281 23.824219 C 10.859375 24.011719 11.144531 24.089844 11.175781 24.097656 C 11.289062 24.128906 11.398438 24.140625 11.503906 24.140625 C 11.757812 24.140625 11.980469 24.058594 12.160156 23.890625 C 12.152344 24.558594 12.179688 25.21875 12.257812 25.417969 C 12.324219 25.582031 12.480469 25.984375 12.972656 25.984375 C 13.046875 25.984375 13.125 25.976562 13.214844 25.957031 C 13.730469 25.84375 13.953125 25.609375 14.042969 25.09375 C 14.085938 24.816406 14.167969 24.160156 14.203125 23.804688 C 14.285156 23.832031 14.386719 23.84375 14.496094 23.84375 C 14.726562 23.84375 14.988281 23.792969 15.15625 23.714844 C 15.34375 23.625 15.679688 23.40625 15.617188 23.21875 Z M 14.386719 20.832031 C 14.386719 20.9375 14.371094 21.03125 14.359375 21.128906 C 14.34375 21.234375 14.324219 21.34375 14.320312 21.480469 C 14.316406 21.609375 14.332031 21.742188 14.347656 21.875 C 14.378906 22.136719 14.410156 22.410156 14.289062 22.675781 C 14.269531 22.640625 14.25 22.605469 14.234375 22.5625 C 14.21875 22.523438 14.183594 22.464844 14.140625 22.378906 C 13.960938 22.050781 13.542969 21.28125 13.757812 20.96875 C 13.820312 20.875 13.984375 20.78125 14.386719 20.832031 Z M 13.898438 19.066406 C 14.492188 19.078125 14.960938 19.308594 15.292969 19.742188 C 15.550781 20.078125 15.269531 21.601562 14.453125 22.914062 C 14.445312 22.90625 14.4375 22.894531 14.429688 22.882812 C 14.425781 22.878906 14.421875 22.875 14.417969 22.871094 C 14.628906 22.515625 14.589844 22.160156 14.550781 21.847656 C 14.535156 21.71875 14.523438 21.597656 14.527344 21.484375 C 14.53125 21.363281 14.546875 21.261719 14.5625 21.160156 C 14.578125 21.039062 14.597656 20.910156 14.59375 20.761719 C 14.597656 20.746094 14.597656 20.726562 14.597656 20.703125 C 14.582031 20.558594 14.421875 20.128906 14.09375 19.738281 C 13.917969 19.523438 13.65625 19.285156 13.300781 19.121094 C 13.453125 19.089844 13.664062 19.058594 13.898438 19.066406 Z M 10.570312 23.667969 C 10.40625 23.871094 10.292969 23.832031 10.253906 23.820312 C 10.011719 23.734375 9.730469 23.207031 9.480469 22.371094 C 9.265625 21.648438 9.140625 20.921875 9.128906 20.714844 C 9.097656 20.070312 9.25 19.621094 9.582031 19.378906 C 10.125 18.988281 11.011719 19.222656 11.371094 19.339844 C 11.363281 19.347656 11.359375 19.351562 11.355469 19.355469 C 10.769531 19.964844 10.78125 21 10.785156 21.066406 C 10.785156 21.089844 10.785156 21.125 10.789062 21.171875 C 10.796875 21.347656 10.816406 21.671875 10.765625 22.039062 C 10.71875 22.378906 10.824219 22.714844 11.046875 22.957031 C 11.070312 22.980469 11.097656 23.003906 11.121094 23.027344 C 11.019531 23.136719 10.804688 23.382812 10.570312 23.667969 Z M 11.195312 22.8125 C 11.015625 22.617188 10.933594 22.34375 10.96875 22.066406 C 11.023438 21.679688 11.003906 21.339844 10.992188 21.160156 C 10.992188 21.132812 10.992188 21.113281 10.988281 21.09375 C 11.074219 21.015625 11.472656 20.796875 11.753906 20.863281 C 11.882812 20.894531 11.960938 20.984375 11.996094 21.140625 C 12.164062 21.941406 12.019531 22.277344 11.898438 22.546875 C 11.875 22.601562 11.851562 22.65625 11.832031 22.710938 L 11.816406 22.75 C 11.777344 22.855469 11.742188 22.957031 11.722656 23.050781 C 11.527344 23.046875 11.339844 22.964844 11.195312 22.8125 Z M 11.226562 23.894531 C 11.171875 23.878906 11.121094 23.855469 11.089844 23.832031 C 11.113281 23.820312 11.160156 23.804688 11.234375 23.789062 C 11.605469 23.710938 11.664062 23.65625 11.789062 23.492188 C 11.820312 23.453125 11.851562 23.410156 11.894531 23.359375 C 11.964844 23.28125 11.996094 23.296875 12.050781 23.320312 C 12.09375 23.339844 12.140625 23.398438 12.15625 23.460938 C 12.164062 23.492188 12.175781 23.546875 12.144531 23.59375 C 11.882812 23.96875 11.5 23.964844 11.226562 23.894531 Z M 13.171875 25.75 C 12.714844 25.851562 12.554688 25.613281 12.449219 25.339844 C 12.382812 25.164062 12.347656 24.375 12.371094 23.5 C 12.371094 23.488281 12.371094 23.476562 12.367188 23.464844 C 12.363281 23.445312 12.359375 23.425781 12.355469 23.402344 C 12.320312 23.277344 12.234375 23.167969 12.128906 23.125 C 12.085938 23.109375 12.011719 23.074219 11.921875 23.097656 C 11.941406 23.015625 11.972656 22.925781 12.011719 22.824219 L 12.027344 22.78125 C 12.042969 22.734375 12.0625 22.6875 12.085938 22.632812 C 12.210938 22.351562 12.378906 21.964844 12.195312 21.09375 C 12.128906 20.769531 11.898438 20.609375 11.550781 20.648438 C 11.339844 20.667969 11.148438 20.753906 11.054688 20.804688 C 11.035156 20.816406 11.015625 20.824219 11 20.835938 C 11.023438 20.507812 11.125 19.894531 11.5 19.503906 C 11.738281 19.257812 12.050781 19.136719 12.4375 19.144531 C 13.191406 19.15625 13.675781 19.554688 13.949219 19.886719 C 14.1875 20.171875 14.3125 20.460938 14.363281 20.617188 C 13.980469 20.578125 13.722656 20.65625 13.589844 20.847656 C 13.300781 21.269531 13.746094 22.089844 13.960938 22.480469 C 14 22.554688 14.03125 22.617188 14.042969 22.640625 C 14.113281 22.816406 14.203125 22.929688 14.269531 23.015625 C 14.289062 23.039062 14.308594 23.066406 14.324219 23.085938 C 14.207031 23.121094 14 23.203125 14.019531 23.597656 C 14.003906 23.796875 13.894531 24.726562 13.839844 25.058594 C 13.765625 25.492188 13.609375 25.652344 13.171875 25.75 Z M 15.070312 23.523438 C 14.949219 23.578125 14.75 23.621094 14.5625 23.632812 C 14.355469 23.640625 14.25 23.605469 14.222656 23.585938 C 14.210938 23.339844 14.300781 23.3125 14.394531 23.285156 C 14.410156 23.28125 14.425781 23.277344 14.441406 23.273438 C 14.449219 23.28125 14.457031 23.285156 14.46875 23.292969 C 14.636719 23.40625 14.933594 23.417969 15.355469 23.332031 C 15.359375 23.328125 15.359375 23.328125 15.359375 23.328125 C 15.304688 23.382812 15.207031 23.457031 15.070312 23.523438 Z M 15.070312 23.523438 " fill-opacity="1" fill-rule="nonzero"/></g><g clip-path="url(#id23)"><path fill="#599636" d="M 33.269531 19.3125 L 33.425781 19.601562 C 33.460938 19.65625 33.5 19.703125 33.542969 19.75 C 33.675781 19.878906 33.800781 20.015625 33.910156 20.160156 C 34.175781 20.503906 34.355469 20.886719 34.484375 21.300781 C 34.558594 21.554688 34.601562 21.8125 34.605469 22.074219 C 34.617188 22.859375 34.347656 23.53125 33.796875 24.09375 C 33.707031 24.179688 33.609375 24.261719 33.507812 24.335938 C 33.453125 24.335938 33.429688 24.292969 33.40625 24.257812 C 33.363281 24.1875 33.339844 24.109375 33.324219 24.03125 C 33.304688 23.933594 33.292969 23.839844 33.300781 23.742188 L 33.300781 23.699219 C 33.296875 23.6875 33.25 19.335938 33.269531 19.3125 Z M 33.269531 19.3125 " fill-opacity="1" fill-rule="nonzero"/></g><g clip-path="url(#id24)"><path fill="#6cac48" d="M 33.269531 19.304688 C 33.261719 19.289062 33.253906 19.300781 33.25 19.304688 C 33.253906 19.371094 33.230469 19.425781 33.195312 19.480469 C 33.15625 19.535156 33.105469 19.574219 33.054688 19.617188 C 32.769531 19.863281 32.546875 20.15625 32.367188 20.484375 C 32.128906 20.929688 32.003906 21.402344 31.96875 21.902344 C 31.953125 22.082031 32.027344 22.71875 32.085938 22.902344 C 32.242188 23.386719 32.523438 23.796875 32.890625 24.148438 C 32.980469 24.234375 33.074219 24.3125 33.175781 24.390625 C 33.203125 24.390625 33.207031 24.363281 33.210938 24.34375 C 33.226562 24.304688 33.234375 24.265625 33.242188 24.222656 C 33.269531 24.0625 33.285156 23.90625 33.304688 23.746094 Z M 33.269531 19.304688 " fill-opacity="1" fill-rule="nonzero"/></g><g clip-path="url(#id25)"><path fill="#ffffff" d="M 33.425781 24.527344 C 33.433594 24.457031 33.46875 24.394531 33.503906 24.335938 C 33.46875 24.320312 33.4375 24.289062 33.414062 24.253906 C 33.398438 24.222656 33.378906 24.183594 33.367188 24.148438 C 33.324219 24.015625 33.3125 23.878906 33.300781 23.742188 L 33.300781 23.660156 C 33.285156 23.671875 33.28125 23.78125 33.28125 23.796875 C 33.273438 23.941406 33.253906 24.082031 33.222656 24.222656 C 33.214844 24.277344 33.207031 24.335938 33.171875 24.386719 C 33.171875 24.394531 33.171875 24.398438 33.175781 24.410156 C 33.234375 24.574219 33.25 24.746094 33.257812 24.921875 L 33.257812 24.984375 C 33.257812 25.058594 33.257812 25.042969 33.320312 25.070312 C 33.34375 25.078125 33.375 25.082031 33.398438 25.101562 C 33.417969 25.101562 33.421875 25.085938 33.421875 25.074219 L 33.414062 24.96875 L 33.414062 24.675781 C 33.410156 24.625 33.417969 24.574219 33.425781 24.527344 Z M 33.425781 24.527344 " fill-opacity="1" fill-rule="nonzero"/></g><path fill="#737373" d="M 35.855469 23.207031 L 35.855469 23.507812 C 35.855469 23.519531 35.855469 23.53125 35.855469 23.542969 C 35.859375 23.578125 35.882812 23.601562 35.914062 23.609375 C 35.945312 23.617188 35.976562 23.625 36.007812 23.628906 C 36.023438 23.628906 36.03125 23.636719 36.03125 23.65625 C 36.035156 23.726562 36.027344 23.734375 35.964844 23.730469 C 35.808594 23.722656 35.65625 23.71875 35.5 23.730469 L 35.484375 23.730469 C 35.4375 23.730469 35.433594 23.726562 35.433594 23.679688 C 35.433594 23.671875 35.433594 23.660156 35.433594 23.652344 C 35.433594 23.640625 35.445312 23.632812 35.460938 23.632812 C 35.492188 23.628906 35.523438 23.621094 35.550781 23.613281 C 35.59375 23.605469 35.617188 23.578125 35.621094 23.535156 C 35.628906 23.492188 35.628906 23.445312 35.628906 23.398438 L 35.628906 22.867188 C 35.632812 22.832031 35.617188 22.808594 35.585938 22.792969 C 35.550781 22.773438 35.511719 22.757812 35.472656 22.746094 C 35.460938 22.742188 35.449219 22.738281 35.4375 22.730469 C 35.40625 22.71875 35.40625 22.691406 35.433594 22.675781 C 35.445312 22.671875 35.457031 22.667969 35.46875 22.664062 C 35.589844 22.648438 35.710938 22.617188 35.824219 22.574219 C 35.851562 22.566406 35.855469 22.570312 35.859375 22.59375 C 35.859375 22.609375 35.859375 22.625 35.855469 22.640625 C 35.851562 22.664062 35.851562 22.691406 35.851562 22.714844 C 35.851562 22.722656 35.855469 22.734375 35.863281 22.742188 C 35.875 22.746094 35.882812 22.742188 35.894531 22.734375 C 35.9375 22.703125 35.976562 22.671875 36.023438 22.648438 C 36.089844 22.613281 36.160156 22.582031 36.238281 22.570312 C 36.328125 22.558594 36.410156 22.582031 36.480469 22.640625 C 36.507812 22.667969 36.535156 22.695312 36.554688 22.730469 C 36.574219 22.757812 36.578125 22.757812 36.601562 22.738281 C 36.679688 22.683594 36.757812 22.632812 36.847656 22.597656 C 36.9375 22.558594 37.027344 22.554688 37.121094 22.585938 C 37.214844 22.621094 37.277344 22.683594 37.316406 22.773438 C 37.347656 22.84375 37.363281 22.917969 37.363281 22.996094 L 37.363281 23.527344 C 37.363281 23.5625 37.378906 23.585938 37.414062 23.601562 C 37.453125 23.617188 37.492188 23.625 37.535156 23.632812 C 37.558594 23.636719 37.558594 23.636719 37.558594 23.664062 C 37.554688 23.730469 37.550781 23.734375 37.484375 23.730469 C 37.324219 23.71875 37.164062 23.71875 37.003906 23.730469 C 36.96875 23.730469 36.96875 23.730469 36.96875 23.699219 L 36.96875 23.691406 C 36.964844 23.636719 36.964844 23.636719 37.019531 23.625 L 37.070312 23.609375 C 37.113281 23.601562 37.132812 23.574219 37.132812 23.53125 L 37.136719 23.382812 L 37.132812 22.996094 C 37.132812 22.960938 37.125 22.925781 37.113281 22.894531 C 37.0625 22.773438 36.953125 22.730469 36.847656 22.742188 C 36.765625 22.75 36.695312 22.78125 36.628906 22.828125 C 36.617188 22.835938 36.605469 22.851562 36.609375 22.871094 C 36.625 22.996094 36.613281 23.125 36.617188 23.25 L 36.617188 23.523438 C 36.617188 23.574219 36.636719 23.597656 36.683594 23.609375 L 36.777344 23.628906 C 36.789062 23.632812 36.796875 23.636719 36.796875 23.652344 L 36.796875 23.667969 C 36.796875 23.722656 36.792969 23.726562 36.734375 23.726562 C 36.574219 23.71875 36.414062 23.71875 36.257812 23.726562 C 36.203125 23.726562 36.199219 23.722656 36.199219 23.667969 C 36.203125 23.636719 36.207031 23.632812 36.238281 23.628906 L 36.304688 23.617188 C 36.363281 23.605469 36.382812 23.582031 36.386719 23.523438 L 36.394531 23.390625 L 36.390625 22.992188 C 36.386719 22.941406 36.375 22.894531 36.347656 22.847656 C 36.308594 22.773438 36.246094 22.738281 36.160156 22.734375 C 36.074219 22.726562 35.996094 22.757812 35.925781 22.796875 C 35.875 22.828125 35.851562 22.863281 35.855469 22.917969 Z M 39.628906 23.21875 L 39.628906 23.496094 C 39.628906 23.519531 39.632812 23.539062 39.632812 23.558594 C 39.636719 23.585938 39.652344 23.605469 39.683594 23.613281 C 39.714844 23.621094 39.75 23.628906 39.789062 23.628906 C 39.808594 23.632812 39.8125 23.640625 39.8125 23.65625 L 39.8125 23.671875 C 39.8125 23.738281 39.804688 23.746094 39.734375 23.742188 C 39.582031 23.734375 39.429688 23.734375 39.277344 23.742188 L 39.21875 23.746094 C 39.207031 23.746094 39.207031 23.738281 39.203125 23.730469 C 39.195312 23.703125 39.195312 23.675781 39.203125 23.648438 C 39.203125 23.636719 39.210938 23.632812 39.222656 23.632812 C 39.253906 23.628906 39.277344 23.621094 39.304688 23.617188 C 39.355469 23.605469 39.375 23.585938 39.375 23.535156 L 39.382812 23.367188 L 39.382812 22.878906 C 39.382812 22.84375 39.367188 22.820312 39.335938 22.804688 C 39.300781 22.785156 39.261719 22.773438 39.222656 22.757812 C 39.210938 22.753906 39.199219 22.75 39.1875 22.746094 C 39.160156 22.726562 39.160156 22.699219 39.183594 22.679688 C 39.195312 22.671875 39.207031 22.667969 39.222656 22.664062 C 39.351562 22.644531 39.476562 22.617188 39.597656 22.570312 C 39.609375 22.5625 39.617188 22.566406 39.621094 22.582031 C 39.628906 22.59375 39.628906 22.605469 39.628906 22.621094 L 39.621094 22.710938 C 39.621094 22.726562 39.617188 22.742188 39.625 22.746094 C 39.640625 22.753906 39.648438 22.738281 39.65625 22.730469 C 39.714844 22.683594 39.78125 22.640625 39.851562 22.609375 C 39.914062 22.582031 39.976562 22.5625 40.050781 22.566406 C 40.183594 22.574219 40.28125 22.640625 40.34375 22.757812 C 40.375 22.820312 40.386719 22.886719 40.394531 22.957031 L 40.398438 23.101562 L 40.402344 23.539062 C 40.402344 23.574219 40.417969 23.59375 40.449219 23.605469 C 40.484375 23.617188 40.523438 23.625 40.558594 23.632812 C 40.589844 23.636719 40.59375 23.640625 40.59375 23.671875 L 40.59375 23.679688 C 40.589844 23.75 40.585938 23.75 40.519531 23.746094 C 40.367188 23.738281 40.21875 23.738281 40.070312 23.746094 C 40.050781 23.75 40.03125 23.746094 40.011719 23.75 C 40 23.75 39.992188 23.746094 39.988281 23.734375 C 39.984375 23.707031 39.980469 23.683594 39.988281 23.65625 C 39.988281 23.644531 39.996094 23.636719 40.007812 23.636719 L 40.101562 23.621094 C 40.132812 23.613281 40.152344 23.59375 40.15625 23.5625 L 40.160156 23.507812 L 40.15625 23.09375 C 40.15625 23.046875 40.15625 23 40.144531 22.949219 C 40.121094 22.847656 40.042969 22.777344 39.9375 22.765625 C 39.84375 22.757812 39.761719 22.78125 39.683594 22.832031 C 39.644531 22.855469 39.628906 22.886719 39.628906 22.929688 L 39.628906 23.226562 C 39.628906 23.222656 39.628906 23.222656 39.632812 23.222656 Z M 39.628906 23.21875 " fill-opacity="1" fill-rule="nonzero"/><g clip-path="url(#id26)"><path fill="#ffffff" d="M 45.5 22.65625 C 45.476562 22.511719 45.421875 22.382812 45.328125 22.273438 C 45.246094 22.171875 45.140625 22.09375 45.019531 22.046875 C 44.894531 21.996094 44.757812 21.976562 44.621094 21.972656 C 44.566406 21.972656 43.800781 21.984375 43.746094 21.972656 C 43.730469 21.972656 43.722656 21.976562 43.710938 21.988281 C 43.703125 22.003906 43.691406 22.019531 43.6875 22.035156 C 43.664062 22.085938 43.664062 22.082031 43.722656 22.089844 C 43.769531 22.097656 43.816406 22.101562 43.859375 22.117188 C 43.902344 22.132812 43.933594 22.15625 43.941406 22.199219 C 43.945312 22.222656 43.953125 22.917969 43.953125 23.246094 L 43.941406 23.476562 C 43.941406 23.492188 43.9375 23.511719 43.933594 23.527344 C 43.925781 23.550781 43.910156 23.570312 43.886719 23.582031 C 43.859375 23.59375 43.832031 23.601562 43.804688 23.601562 C 43.75 23.609375 43.742188 23.609375 43.722656 23.671875 L 43.71875 23.691406 C 43.714844 23.71875 43.714844 23.722656 43.742188 23.722656 L 44.339844 23.726562 L 44.574219 23.722656 L 44.738281 23.703125 C 44.921875 23.671875 45.085938 23.59375 45.226562 23.472656 C 45.308594 23.402344 45.371094 23.320312 45.417969 23.222656 C 45.476562 23.113281 45.5 22.992188 45.503906 22.871094 C 45.515625 22.800781 45.511719 22.730469 45.5 22.65625 Z M 45.207031 22.9375 C 45.199219 23.066406 45.175781 23.1875 45.109375 23.300781 C 45.023438 23.445312 44.902344 23.546875 44.738281 23.582031 C 44.664062 23.59375 44.59375 23.601562 44.515625 23.59375 C 44.464844 23.585938 44.410156 23.582031 44.359375 23.5625 C 44.269531 23.53125 44.238281 23.476562 44.238281 23.390625 L 44.234375 22.195312 C 44.234375 22.125 44.265625 22.109375 44.320312 22.105469 C 44.398438 22.101562 44.476562 22.101562 44.554688 22.109375 C 44.640625 22.117188 44.71875 22.136719 44.796875 22.167969 C 44.855469 22.191406 44.910156 22.222656 44.957031 22.265625 C 45.066406 22.355469 45.136719 22.46875 45.175781 22.605469 C 45.207031 22.714844 45.214844 22.824219 45.207031 22.9375 Z M 47.164062 23.132812 C 47.164062 23.121094 47.164062 23.113281 47.164062 23.101562 C 47.144531 22.992188 47.085938 22.90625 46.996094 22.84375 C 46.9375 22.800781 46.871094 22.773438 46.804688 22.753906 C 46.792969 22.75 46.78125 22.746094 46.769531 22.746094 C 46.773438 22.734375 46.777344 22.734375 46.785156 22.730469 C 46.824219 22.710938 46.863281 22.691406 46.894531 22.660156 C 46.957031 22.609375 47 22.546875 47.019531 22.46875 C 47.03125 22.425781 47.03125 22.382812 47.027344 22.339844 C 47.019531 22.230469 46.972656 22.144531 46.882812 22.082031 C 46.789062 22.015625 46.679688 21.988281 46.570312 21.984375 C 46.351562 21.980469 46.132812 21.984375 45.917969 21.984375 C 45.855469 21.984375 45.792969 21.988281 45.730469 21.980469 C 45.71875 21.976562 45.699219 21.972656 45.691406 21.988281 C 45.675781 22.015625 45.660156 22.039062 45.652344 22.070312 C 45.652344 22.082031 45.65625 22.089844 45.671875 22.09375 L 45.808594 22.113281 C 45.863281 22.121094 45.902344 22.152344 45.90625 22.199219 C 45.910156 22.230469 45.910156 22.265625 45.910156 22.296875 L 45.90625 22.667969 L 45.90625 23.402344 C 45.90625 23.445312 45.898438 23.484375 45.890625 23.53125 C 45.886719 23.558594 45.871094 23.582031 45.839844 23.589844 C 45.800781 23.601562 45.761719 23.613281 45.71875 23.613281 C 45.691406 23.609375 45.675781 23.621094 45.667969 23.644531 C 45.660156 23.664062 45.652344 23.683594 45.648438 23.703125 C 45.644531 23.726562 45.652344 23.734375 45.675781 23.730469 C 45.695312 23.730469 46.355469 23.746094 46.480469 23.734375 C 46.554688 23.726562 46.625 23.714844 46.699219 23.691406 C 46.824219 23.652344 46.941406 23.597656 47.035156 23.5 C 47.109375 23.417969 47.15625 23.324219 47.160156 23.214844 C 47.164062 23.1875 47.164062 23.164062 47.164062 23.132812 Z M 46.191406 22.320312 L 46.199219 22.164062 C 46.199219 22.132812 46.210938 22.121094 46.242188 22.113281 C 46.289062 22.105469 46.335938 22.109375 46.382812 22.109375 C 46.433594 22.113281 46.480469 22.121094 46.527344 22.132812 C 46.613281 22.160156 46.683594 22.207031 46.722656 22.292969 C 46.742188 22.332031 46.75 22.371094 46.75 22.414062 C 46.753906 22.46875 46.75 22.523438 46.726562 22.574219 C 46.695312 22.648438 46.640625 22.695312 46.5625 22.710938 C 46.484375 22.722656 46.261719 22.71875 46.226562 22.71875 C 46.195312 22.71875 46.195312 22.714844 46.195312 22.683594 L 46.195312 22.496094 C 46.191406 22.441406 46.1875 22.382812 46.191406 22.324219 Z M 46.84375 23.386719 C 46.808594 23.476562 46.746094 23.539062 46.660156 23.570312 C 46.609375 23.589844 46.5625 23.601562 46.511719 23.597656 C 46.449219 23.59375 46.386719 23.597656 46.328125 23.585938 C 46.242188 23.566406 46.203125 23.488281 46.199219 23.429688 C 46.1875 23.328125 46.195312 23.226562 46.191406 23.152344 L 46.191406 22.890625 C 46.191406 22.859375 46.195312 22.847656 46.230469 22.847656 L 46.417969 22.851562 L 46.546875 22.863281 C 46.636719 22.886719 46.71875 22.917969 46.785156 22.988281 C 46.835938 23.042969 46.863281 23.109375 46.871094 23.183594 C 46.875 23.253906 46.871094 23.320312 46.847656 23.386719 Z M 46.84375 23.386719 " fill-opacity="1" fill-rule="nonzero"/></g><path fill="#737373" d="M 41.753906 22.789062 L 41.804688 22.796875 C 41.859375 22.800781 41.925781 22.78125 41.945312 22.703125 C 41.957031 22.664062 41.957031 22.628906 41.945312 22.589844 C 41.933594 22.589844 41.929688 22.601562 41.921875 22.605469 C 41.890625 22.628906 41.859375 22.640625 41.820312 22.644531 C 41.75 22.652344 41.679688 22.648438 41.609375 22.625 L 41.507812 22.589844 C 41.441406 22.566406 41.371094 22.558594 41.296875 22.5625 C 41.195312 22.570312 41.097656 22.605469 41.007812 22.652344 C 40.910156 22.703125 40.84375 22.78125 40.8125 22.886719 C 40.792969 22.949219 40.792969 23.011719 40.800781 23.074219 C 40.820312 23.21875 40.894531 23.320312 41.03125 23.375 C 41.039062 23.375 41.046875 23.378906 41.054688 23.382812 C 41.070312 23.390625 41.074219 23.402344 41.058594 23.414062 L 41.007812 23.449219 L 40.886719 23.523438 C 40.859375 23.539062 40.855469 23.554688 40.863281 23.585938 C 40.875 23.621094 40.898438 23.65625 40.929688 23.679688 C 40.957031 23.703125 40.984375 23.722656 41.019531 23.734375 C 41.042969 23.746094 41.042969 23.75 41.023438 23.769531 L 40.90625 23.847656 C 40.871094 23.878906 40.832031 23.90625 40.800781 23.945312 C 40.75 23.996094 40.734375 24.054688 40.75 24.121094 C 40.765625 24.191406 40.800781 24.253906 40.855469 24.300781 C 40.910156 24.347656 40.96875 24.382812 41.039062 24.398438 C 41.152344 24.429688 41.269531 24.433594 41.382812 24.410156 C 41.546875 24.382812 41.691406 24.308594 41.804688 24.1875 C 41.882812 24.105469 41.925781 24.011719 41.933594 23.898438 C 41.941406 23.742188 41.871094 23.644531 41.714844 23.609375 L 41.605469 23.589844 L 41.277344 23.558594 C 41.242188 23.558594 41.203125 23.550781 41.175781 23.535156 C 41.136719 23.511719 41.125 23.464844 41.148438 23.433594 C 41.167969 23.414062 41.191406 23.398438 41.21875 23.398438 L 41.28125 23.390625 C 41.414062 23.378906 41.527344 23.328125 41.621094 23.238281 C 41.671875 23.191406 41.707031 23.136719 41.722656 23.070312 C 41.746094 22.984375 41.746094 22.898438 41.726562 22.808594 C 41.722656 22.789062 41.722656 22.785156 41.75 22.789062 Z M 41.261719 23.777344 C 41.273438 23.78125 41.285156 23.777344 41.296875 23.777344 C 41.382812 23.78125 41.46875 23.789062 41.550781 23.808594 C 41.578125 23.816406 41.601562 23.828125 41.628906 23.839844 C 41.707031 23.882812 41.738281 23.957031 41.726562 24.039062 C 41.714844 24.128906 41.664062 24.191406 41.585938 24.234375 C 41.535156 24.261719 41.476562 24.273438 41.417969 24.28125 C 41.394531 24.28125 41.375 24.28125 41.351562 24.28125 C 41.28125 24.28125 41.214844 24.273438 41.148438 24.246094 C 41.101562 24.230469 41.0625 24.203125 41.03125 24.167969 C 40.960938 24.097656 40.925781 23.972656 41.03125 23.867188 C 41.097656 23.8125 41.167969 23.769531 41.261719 23.777344 Z M 41.488281 23.160156 C 41.445312 23.265625 41.355469 23.296875 41.261719 23.28125 C 41.179688 23.269531 41.117188 23.222656 41.078125 23.148438 C 41.023438 23.046875 41.011719 22.945312 41.039062 22.835938 C 41.0625 22.753906 41.113281 22.691406 41.199219 22.675781 C 41.3125 22.65625 41.421875 22.699219 41.476562 22.808594 C 41.507812 22.863281 41.519531 22.925781 41.519531 23.019531 C 41.515625 23.058594 41.507812 23.109375 41.488281 23.160156 Z M 38.964844 23.023438 C 38.945312 22.917969 38.90625 22.820312 38.832031 22.738281 C 38.722656 22.617188 38.582031 22.566406 38.421875 22.566406 C 38.285156 22.5625 38.15625 22.601562 38.039062 22.671875 C 37.917969 22.742188 37.839844 22.84375 37.804688 22.976562 C 37.769531 23.09375 37.773438 23.207031 37.796875 23.324219 C 37.867188 23.636719 38.113281 23.773438 38.40625 23.753906 C 38.492188 23.746094 38.574219 23.71875 38.652344 23.683594 C 38.769531 23.628906 38.851562 23.542969 38.910156 23.429688 C 38.957031 23.335938 38.976562 23.238281 38.972656 23.125 Z M 38.679688 23.464844 C 38.648438 23.5625 38.578125 23.621094 38.472656 23.628906 C 38.386719 23.640625 38.304688 23.621094 38.230469 23.570312 C 38.175781 23.53125 38.132812 23.480469 38.101562 23.421875 C 38.019531 23.253906 38.007812 23.078125 38.046875 22.902344 C 38.0625 22.84375 38.089844 22.796875 38.132812 22.757812 C 38.207031 22.691406 38.292969 22.671875 38.390625 22.695312 C 38.480469 22.714844 38.550781 22.761719 38.609375 22.839844 C 38.667969 22.914062 38.691406 23 38.710938 23.09375 C 38.71875 23.136719 38.71875 23.183594 38.71875 23.214844 C 38.71875 23.308594 38.710938 23.390625 38.679688 23.464844 Z M 43.34375 23.039062 C 43.328125 22.925781 43.285156 22.820312 43.203125 22.734375 C 43.09375 22.617188 42.953125 22.566406 42.796875 22.566406 C 42.664062 22.5625 42.539062 22.601562 42.425781 22.664062 C 42.296875 22.742188 42.207031 22.847656 42.175781 22.992188 C 42.132812 23.15625 42.148438 23.3125 42.222656 23.464844 C 42.289062 23.601562 42.402344 23.691406 42.550781 23.730469 C 42.714844 23.773438 42.871094 23.753906 43.023438 23.683594 C 43.15625 23.617188 43.25 23.519531 43.304688 23.386719 C 43.335938 23.304688 43.347656 23.21875 43.347656 23.121094 C 43.351562 23.105469 43.347656 23.070312 43.34375 23.039062 Z M 43.066406 23.4375 C 43.035156 23.546875 42.964844 23.613281 42.851562 23.628906 C 42.769531 23.644531 42.6875 23.621094 42.617188 23.574219 C 42.554688 23.535156 42.507812 23.476562 42.476562 23.414062 C 42.441406 23.34375 42.421875 23.269531 42.414062 23.195312 C 42.402344 23.101562 42.402344 23.011719 42.421875 22.917969 C 42.425781 22.898438 42.433594 22.882812 42.441406 22.863281 C 42.496094 22.726562 42.621094 22.664062 42.769531 22.695312 C 42.867188 22.714844 42.941406 22.769531 42.996094 22.851562 C 43.050781 22.929688 43.078125 23.015625 43.089844 23.113281 C 43.09375 23.148438 43.097656 23.1875 43.09375 23.222656 C 43.09375 23.300781 43.089844 23.371094 43.066406 23.441406 Z M 43.066406 23.4375 " fill-opacity="1" fill-rule="nonzero"/></svg>